<svg width="24" height="24" viewBox="0 0 24 24" fill="none" xmlns="http://www.w3.org/2000/svg">
<g clip-path="url(#clip0_203_2553)">
<path d="M19.6976 7.11328C19.9565 7.11328 20.1664 6.90338 20.1664 6.64453V3.32813C20.1664 1.5188 18.6945 0.046875 16.8851 0.046875H5.16638C3.59841 0.046875 2.2846 1.15256 1.96177 2.625H1.65076C0.746116 2.625 0.0101318 3.36098 0.0101318 4.26563C0.0101318 5.17027 0.746116 5.90625 1.65076 5.90625H1.88513V7.78125H1.65076C0.746116 7.78125 0.0101318 8.51724 0.0101318 9.42188C0.0101318 10.3265 0.746116 11.0625 1.65076 11.0625H1.88513V12.9375H1.65076C0.746116 12.9375 0.0101318 13.6735 0.0101318 14.5781C0.0101318 15.4828 0.746116 16.2188 1.65076 16.2188H1.88513V18.0938H1.65076C0.746116 18.0938 0.0101318 18.8297 0.0101318 19.7344C0.0101318 20.639 0.746116 21.375 1.65076 21.375H1.96177C2.2846 22.8474 3.59841 23.9531 5.16638 23.9531H16.8851C18.6945 23.9531 20.1664 22.4812 20.1664 20.6719V12.6595C20.1664 12.4007 19.9565 12.1908 19.6976 12.1908C19.4388 12.1908 19.2289 12.4007 19.2289 12.6595V20.6719C19.2289 21.9642 18.1775 23.0156 16.8851 23.0156H7.04138V0.984375H16.8851C18.1775 0.984375 19.2289 2.03578 19.2289 3.32813V6.64453C19.2289 6.90338 19.4387 7.11328 19.6976 7.11328ZM1.65076 4.96875C1.26305 4.96875 0.947632 4.65333 0.947632 4.26563C0.947632 3.87792 1.26305 3.5625 1.65076 3.5625H1.88513V4.96875H1.65076ZM1.65076 10.125C1.26305 10.125 0.947632 9.80958 0.947632 9.42188C0.947632 9.03417 1.26305 8.71875 1.65076 8.71875H1.88513V10.125H1.65076ZM1.65076 15.2813C1.26305 15.2813 0.947632 14.9658 0.947632 14.5781C0.947632 14.1904 1.26305 13.875 1.65076 13.875H1.88513V15.2813H1.65076ZM0.947632 19.7344C0.947632 19.3467 1.26305 19.0313 1.65076 19.0313H1.88513V20.4375H1.65076C1.26301 20.4375 0.947632 20.1221 0.947632 19.7344ZM6.10388 23.0156H5.16638C3.87404 23.0156 2.82263 21.9642 2.82263 20.6719V19.0313H3.52576C3.91346 19.0313 4.22888 19.3467 4.22888 19.7344C4.22888 19.9932 4.43879 20.2031 4.69763 20.2031C4.95648 20.2031 5.16638 19.9932 5.16638 19.7344C5.16638 18.8297 4.4304 18.0938 3.52576 18.0938H2.82263V13.875H3.52576C3.91346 13.875 4.22888 14.1904 4.22888 14.5781C4.22888 14.837 4.43879 15.0469 4.69763 15.0469C4.95648 15.0469 5.16638 14.837 5.16638 14.5781C5.16638 13.6735 4.4304 12.9375 3.52576 12.9375H2.82263V8.71875H3.52576C3.91346 8.71875 4.22888 9.03417 4.22888 9.42188C4.22888 9.68072 4.43879 9.89063 4.69763 9.89063C4.95648 9.89063 5.16638 9.68072 5.16638 9.42188C5.16638 8.51724 4.4304 7.78125 3.52576 7.78125H2.82263V3.5625H3.52576C3.91346 3.5625 4.22888 3.87792 4.22888 4.26563C4.22888 4.52447 4.43879 4.73438 4.69763 4.73438C4.95648 4.73438 5.16638 4.52447 5.16638 4.26563C5.16638 3.36098 4.4304 2.625 3.52576 2.625H2.93054C3.22988 1.67513 4.11891 0.984375 5.16638 0.984375H6.10388V23.0156Z" fill="#7F8080"/>
<path d="M15.4789 10.125C15.4789 9.22036 14.7429 8.48438 13.8383 8.48438H9.61951C8.71487 8.48438 7.97888 9.22036 7.97888 10.125C7.97888 11.0296 8.71487 11.7656 9.61951 11.7656H13.8383C14.7429 11.7656 15.4789 11.0296 15.4789 10.125ZM8.91638 10.125C8.91638 9.7373 9.2318 9.42188 9.61951 9.42188H13.8383C14.226 9.42188 14.5414 9.7373 14.5414 10.125C14.5414 10.5127 14.226 10.8281 13.8383 10.8281H9.61951C9.23176 10.8281 8.91638 10.5127 8.91638 10.125Z" fill="#7F8080"/>
<path d="M13.1351 13.6406C13.1351 13.3818 12.9252 13.1719 12.6664 13.1719H8.44763C8.18879 13.1719 7.97888 13.3818 7.97888 13.6406C7.97888 13.8995 8.18879 14.1094 8.44763 14.1094H12.6664C12.9252 14.1094 13.1351 13.8995 13.1351 13.6406Z" fill="#7F8080"/>
<path d="M11.2601 15.5156H8.44763C8.18879 15.5156 7.97888 15.7255 7.97888 15.9844C7.97888 16.2432 8.18879 16.4531 8.44763 16.4531H11.2601C11.519 16.4531 11.7289 16.2432 11.7289 15.9844C11.7289 15.7255 11.519 15.5156 11.2601 15.5156Z" fill="#7F8080"/>
<path d="M11.2601 17.8594H8.44763C8.18879 17.8594 7.97888 18.0693 7.97888 18.3281C7.97888 18.587 8.18879 18.7969 8.44763 18.7969H11.2601C11.519 18.7969 11.7289 18.587 11.7289 18.3281C11.7289 18.0693 11.519 17.8594 11.2601 17.8594Z" fill="#7F8080"/>
<path d="M23.2448 5.06145L22.4591 4.55C21.7009 4.05659 20.6826 4.27193 20.1891 5.03009L13.1571 15.8338C13.1174 15.895 13.0922 15.9679 13.0843 16.0365L12.6693 19.6815C12.6377 19.9587 12.8547 20.2032 13.1351 20.2032C13.2169 20.2032 13.2988 20.1819 13.3721 20.1389L16.5371 18.2839C16.5959 18.2493 16.6529 18.1969 16.6929 18.1352L23.7248 7.33146C24.2183 6.57331 24.003 5.55495 23.2448 5.06145ZM16.163 17.2309C15.5378 16.824 14.8237 16.3593 14.1986 15.9524L19.5685 7.70225L21.5328 8.98076L16.163 17.2309ZM13.7069 18.8561L13.93 16.8961L15.4087 17.8586L13.7069 18.8561ZM22.9391 6.82001L22.0441 8.19504L20.0798 6.91653L20.9748 5.5415C21.1864 5.2166 21.6227 5.1244 21.9477 5.33571L22.7334 5.84712C23.0583 6.05867 23.1506 6.49512 22.9391 6.82001Z" fill="#7F8080"/>
<path d="M18.2914 5.67187V3.79687C18.2914 3.02147 17.6605 2.39062 16.8851 2.39062H9.38513C8.60973 2.39062 7.97888 3.02147 7.97888 3.79687V5.67187C7.97888 6.44728 8.60973 7.07812 9.38513 7.07812H16.8851C17.6605 7.07812 18.2914 6.44728 18.2914 5.67187ZM8.91638 5.67187V3.79687C8.91638 3.53841 9.12666 3.32812 9.38513 3.32812H16.8851C17.1436 3.32812 17.3539 3.53841 17.3539 3.79687V5.67187C17.3539 5.93034 17.1436 6.14062 16.8851 6.14062H9.38513C9.12666 6.14062 8.91638 5.93034 8.91638 5.67187Z" fill="#7F8080"/>
</g>
<defs>
<clipPath id="clip0_203_2553">
<rect width="24" height="24" fill="white"/>
</clipPath>
</defs>
</svg>
