<svg width="16" height="16" fill="none" xmlns="http://www.w3.org/2000/svg">
    <g clip-path="url(#prefix__clip0_118_174)" fill="#7D8189">
        <path
            d="M3.075.875H1.5C.925.875.425 1.35.425 1.95v1.575C.425 4.1.9 4.6 1.5 4.6h1.575c.575 0 1.075-.475 1.075-1.075v-1.6c-.025-.575-.5-1.05-1.075-1.05zM3 3.45H1.575V2H3v1.45zM6.425 3.3H15c.3 0 .575-.25.575-.575A.566.566 0 0015 2.15H6.425c-.3 0-.575.25-.575.575 0 .325.275.575.575.575zM3.075 6H1.5C.925 6 .425 6.475.425 7.075V8.65c0 .575.475 1.075 1.075 1.075h1.575c.575 0 1.075-.475 1.075-1.075V7.075C4.125 6.475 3.65 6 3.075 6zM3 8.575H1.575v-1.45H3v1.45zM15 7.3H6.425c-.3 0-.575.25-.575.575 0 .325.25.55.575.55H15c.3 0 .575-.25.575-.55A.6.6 0 0015 7.3zM3.075 11.425H1.5c-.575 0-1.075.475-1.075 1.075v1.575c0 .575.475 1.075 1.075 1.075h1.575c.575 0 1.075-.475 1.075-1.075V12.5c-.025-.6-.5-1.075-1.075-1.075zM3 14H1.575v-1.45H3V14zM15 12.7H6.425c-.3 0-.575.25-.575.575 0 .325.25.575.575.575H15c.3 0 .575-.25.575-.575A.582.582 0 0015 12.7z" />
    </g>
    <defs>
        <clipPath id="prefix__clip0_118_174">
            <path fill="#fff" d="M0 0h16v16H0z" />
        </clipPath>
    </defs>
</svg>
