<svg viewBox="0 0 16 16" fill="none" xmlns="http://www.w3.org/2000/svg">
    <g clip-path="url(#clip0_324_2166)">
        <path
            d="M15.3 3.25001C14.5 2.40001 13.65 1.55001 12.8 0.725012C12.625 0.550012 12.425 0.450012 12.2 0.450012C11.975 0.450012 11.75 0.525012 11.6 0.700012L2.17501 10.05C2.02501 10.2 1.92501 10.375 1.85001 10.55L0.475015 14.75C0.400015 14.95 0.450015 15.15 0.550015 15.3C0.675015 15.45 0.850015 15.55 1.07501 15.55H1.17501L5.45001 14.125C5.65001 14.05 5.82501 13.95 5.95001 13.8L15.325 4.45001C15.475 4.30001 15.575 4.07501 15.575 3.85001C15.575 3.62501 15.475 3.42501 15.3 3.25001ZM5.15001 13.025C5.12501 13.05 5.10001 13.05 5.07501 13.075L1.85001 14.15L2.92501 10.925C2.92501 10.9 2.95001 10.875 2.97501 10.85L9.85002 4.00001L12.025 6.17501L5.15001 13.025ZM12.8 5.37501L10.625 3.20001L12.15 1.67501C12.875 2.37501 13.6 3.12501 14.3 3.85001L12.8 5.37501Z"
            fill="#2C698D" />
    </g>
    <defs>
        <clipPath id="clip0_324_2166">
            <rect width="16" height="16" fill="white" />
        </clipPath>
    </defs>
</svg>