<svg width="32" height="28" viewBox="0 0 32 28" fill="none" xmlns="http://www.w3.org/2000/svg">
<path fill-rule="evenodd" clip-rule="evenodd" d="M30.5483 14.2638C30.5483 13.2874 30.4504 12.3485 30.2685 11.4471H15.7759V16.7738H24.0574C23.7007 18.4951 22.6165 19.9536 20.9868 20.93V24.3851H25.9599C28.8696 21.9878 30.5483 18.4576 30.5483 14.2638Z" fill="#4285F4"/>
<path fill-rule="evenodd" clip-rule="evenodd" d="M15.7756 27.7212C19.9304 27.7212 23.4136 26.4882 25.9596 24.385L20.9865 20.9299C19.6086 21.7561 17.846 22.2443 15.7756 22.2443C11.7678 22.2443 8.37543 19.822 7.16538 16.5671H2.02441V20.1349C4.55642 24.6354 9.76034 27.7212 15.7756 27.7212Z" fill="#34A853"/>
<path fill-rule="evenodd" clip-rule="evenodd" d="M7.16562 16.5672C6.85787 15.741 6.683 14.8584 6.683 13.9508C6.683 13.0432 6.85787 12.1606 7.16562 11.3344V7.7666H2.02466C0.982473 9.62562 0.387939 11.7287 0.387939 13.9508C0.387939 16.1729 0.982473 18.276 2.02466 20.135L7.16562 16.5672Z" fill="#FBBC05"/>
<path fill-rule="evenodd" clip-rule="evenodd" d="M15.7756 5.6572C18.0349 5.6572 20.0633 6.35198 21.658 7.71651L26.0715 3.76689C23.4066 1.54483 19.9234 0.180298 15.7756 0.180298C9.76034 0.180298 4.55642 3.26614 2.02441 7.76659L7.16538 11.3344C8.37543 8.07955 11.7678 5.6572 15.7756 5.6572Z" fill="#EA4335"/>
</svg>
