<svg  viewBox="0 0 325 64" fill="none" xmlns="http://www.w3.org/2000/svg">
<path d="M88.0304 41.848C88.0304 42.6587 88.0624 43.32 88.1264 43.832C88.2117 44.3227 88.3717 44.7067 88.6064 44.984C88.8624 45.24 89.2037 45.4213 89.6304 45.528C90.0784 45.6347 90.6651 45.6987 91.3904 45.72V47H79.6464V45.72C80.4357 45.6987 81.0651 45.6347 81.5344 45.528C82.0251 45.4213 82.3984 45.24 82.6544 44.984C82.9317 44.728 83.1131 44.3653 83.1984 43.896C83.2837 43.4267 83.3264 42.8187 83.3264 42.072V35.384H71.4544V41.848C71.4544 42.6587 71.4971 43.32 71.5824 43.832C71.6677 44.3227 71.8384 44.7067 72.0944 44.984C72.3504 45.24 72.7131 45.4213 73.1824 45.528C73.6731 45.6347 74.3131 45.6987 75.1024 45.72V47H63.3904V45.72C64.1157 45.6987 64.6917 45.6347 65.1184 45.528C65.5664 45.4213 65.9077 45.24 66.1424 44.984C66.3771 44.728 66.5371 44.3653 66.6224 43.896C66.7077 43.4267 66.7504 42.8187 66.7504 42.072V27.288C66.7504 26.5413 66.7077 25.944 66.6224 25.496C66.5584 25.0267 66.4197 24.664 66.2064 24.408C65.9931 24.1307 65.6837 23.9493 65.2784 23.864C64.8944 23.7573 64.3824 23.6827 63.7424 23.64V22.36H74.7824V23.64C74.0571 23.6613 73.4704 23.7253 73.0224 23.832C72.5957 23.9387 72.2651 24.1307 72.0304 24.408C71.7957 24.6853 71.6357 25.0693 71.5504 25.56C71.4864 26.0507 71.4544 26.7013 71.4544 27.512V33.4H83.3264V27.288C83.3264 26.5413 83.2837 25.944 83.1984 25.496C83.1131 25.0267 82.9531 24.664 82.7184 24.408C82.4837 24.1307 82.1424 23.9493 81.6944 23.864C81.2677 23.7573 80.6917 23.6827 79.9664 23.64V22.36H91.0384V23.64C90.3984 23.6613 89.8757 23.7253 89.4704 23.832C89.0864 23.9387 88.7877 24.1307 88.5744 24.408C88.3611 24.6853 88.2117 25.0693 88.1264 25.56C88.0624 26.0507 88.0304 26.7013 88.0304 27.512V41.848ZM109.082 44.024C107.14 46.2213 104.719 47.32 101.818 47.32C100.495 47.32 99.2896 47.1173 98.2016 46.712C97.135 46.2853 96.2176 45.6987 95.4496 44.952C94.6816 44.184 94.0843 43.2773 93.6576 42.232C93.231 41.1867 93.0176 40.024 93.0176 38.744C93.0176 37.4213 93.2416 36.216 93.6896 35.128C94.1376 34.0187 94.767 33.0693 95.5776 32.28C96.4096 31.4693 97.3803 30.84 98.4896 30.392C99.6203 29.944 100.858 29.72 102.202 29.72C104.463 29.72 106.223 30.328 107.482 31.544C108.74 32.76 109.37 34.4667 109.37 36.664C109.37 37.0053 109.316 37.2187 109.21 37.304C109.103 37.368 108.804 37.4 108.314 37.4H98.0096C97.9243 37.592 97.8816 37.944 97.8816 38.456C97.8816 40.5467 98.3296 42.2 99.2256 43.416C100.143 44.632 101.38 45.24 102.938 45.24C103.834 45.24 104.719 45.0373 105.594 44.632C106.49 44.2267 107.354 43.6507 108.186 42.904L109.082 44.024ZM102.874 35.608C103.727 35.608 104.271 35.5653 104.506 35.48C104.762 35.3733 104.89 35.1387 104.89 34.776C104.89 33.8373 104.623 33.0693 104.09 32.472C103.556 31.8747 102.884 31.576 102.074 31.576C101.156 31.576 100.335 31.96 99.6096 32.728C98.9056 33.4747 98.447 34.4347 98.2336 35.608H102.874ZM121.528 37.88C119.736 38.6907 118.382 39.448 117.464 40.152C116.568 40.8347 116.12 41.5493 116.12 42.296C116.12 42.9147 116.291 43.4053 116.632 43.768C116.974 44.1307 117.4 44.312 117.912 44.312C118.424 44.312 118.904 44.2267 119.352 44.056C119.8 43.864 120.184 43.6187 120.504 43.32C120.824 43.0213 121.07 42.6693 121.24 42.264C121.432 41.8373 121.528 41.3893 121.528 40.92V37.88ZM121.528 36.184V34.84C121.528 33.6027 121.304 32.7067 120.856 32.152C120.43 31.576 119.758 31.288 118.84 31.288C118.222 31.288 117.752 31.4587 117.432 31.8C117.112 32.12 116.814 32.664 116.536 33.432C116.344 33.9653 116.067 34.3813 115.704 34.68C115.363 34.9787 114.883 35.128 114.264 35.128C113.667 35.128 113.208 34.9467 112.888 34.584C112.568 34.2213 112.408 33.7093 112.408 33.048C112.408 32.024 112.963 31.2133 114.072 30.616C115.203 30.0187 116.899 29.72 119.16 29.72C121.55 29.72 123.256 30.1573 124.28 31.032C125.304 31.8853 125.816 33.3253 125.816 35.352V42.36C125.816 44.1733 126.179 45.08 126.904 45.08C127.31 45.08 127.683 44.9413 128.024 44.664L128.504 45.592C128.206 46.1253 127.736 46.552 127.096 46.872C126.478 47.1707 125.774 47.32 124.984 47.32C124.003 47.32 123.256 47.0213 122.744 46.424C122.232 45.8267 121.976 44.984 121.976 43.896H121.816C121.198 45.0053 120.398 45.848 119.416 46.424C118.435 47 117.315 47.288 116.056 47.288C114.712 47.288 113.635 46.9147 112.824 46.168C112.014 45.4 111.608 44.408 111.608 43.192C111.608 42.2533 112.024 41.3787 112.856 40.568C113.688 39.736 115.075 38.9253 117.016 38.136L121.528 36.184ZM136.799 41.752C136.799 42.6053 136.831 43.288 136.895 43.8C136.959 44.312 137.087 44.7067 137.279 44.984C137.471 45.2613 137.749 45.4533 138.111 45.56C138.474 45.6453 138.965 45.6987 139.583 45.72V47H129.503V45.72C130.101 45.6987 130.581 45.6347 130.943 45.528C131.327 45.4 131.615 45.208 131.807 44.952C132.021 44.6747 132.159 44.3013 132.223 43.832C132.309 43.3413 132.351 42.7227 132.351 41.976V28.76C132.351 27.5227 132.33 26.5093 132.287 25.72C132.245 24.9093 132.191 24.3547 132.127 24.056C132.021 23.5227 131.775 23.1707 131.391 23C131.029 22.8293 130.357 22.744 129.375 22.744V21.656L136.799 20.44V41.752ZM141.07 31.8V30.36C142.35 29.9973 143.417 29.4533 144.27 28.728C145.145 27.9813 145.796 27.128 146.222 26.168H147.854V30.04H151.534V31.8H147.854V41.624C147.854 42.9467 147.993 43.8853 148.27 44.44C148.569 44.9947 149.06 45.272 149.742 45.272C150.574 45.272 151.204 44.888 151.63 44.12L152.302 45.048C151.705 46.5627 150.297 47.32 148.078 47.32C146.606 47.32 145.454 46.9787 144.622 46.296C143.812 45.6133 143.406 44.6533 143.406 43.416V31.8H141.07ZM160.297 41.752C160.297 42.6267 160.318 43.32 160.361 43.832C160.425 44.3227 160.542 44.7067 160.713 44.984C160.905 45.2613 161.182 45.4427 161.545 45.528C161.929 45.6133 162.441 45.6773 163.081 45.72V47H153.001V45.72C153.641 45.6773 154.153 45.6133 154.537 45.528C154.921 45.4427 155.209 45.272 155.401 45.016C155.593 44.76 155.71 44.3973 155.753 43.928C155.817 43.4373 155.849 42.7867 155.849 41.976V28.824C155.849 27.544 155.828 26.5413 155.785 25.816C155.764 25.0693 155.71 24.504 155.625 24.12C155.561 23.8427 155.486 23.6293 155.401 23.48C155.316 23.3093 155.177 23.1813 154.985 23.096C154.814 22.9893 154.569 22.9253 154.249 22.904C153.95 22.8613 153.566 22.84 153.097 22.84V21.656L160.233 20.44V32.248H160.361C161.022 31.3733 161.758 30.7333 162.569 30.328C163.401 29.9227 164.393 29.72 165.545 29.72C167.636 29.72 169.257 30.36 170.409 31.64C170.964 32.28 171.401 33.0587 171.721 33.976C172.041 34.872 172.201 35.8107 172.201 36.792V41.752C172.201 42.648 172.222 43.352 172.265 43.864C172.308 44.3547 172.414 44.7387 172.585 45.016C172.777 45.272 173.054 45.4427 173.417 45.528C173.78 45.6133 174.281 45.6773 174.921 45.72V47H164.905V45.72C165.545 45.6987 166.046 45.6453 166.409 45.56C166.793 45.4533 167.081 45.272 167.273 45.016C167.486 44.76 167.614 44.3973 167.657 43.928C167.721 43.4373 167.753 42.7867 167.753 41.976V38.04C167.753 35.7787 167.508 34.1787 167.017 33.24C166.526 32.3013 165.684 31.832 164.489 31.832C163.209 31.832 162.196 32.3013 161.449 33.24C161.086 33.7307 160.798 34.3387 160.585 35.064C160.393 35.7893 160.297 36.6 160.297 37.496V41.752ZM197.733 29.208C197.733 31.512 196.837 33.272 195.045 34.488C193.253 35.6827 190.65 36.28 187.237 36.28H184.517V41.912C184.517 42.7227 184.57 43.384 184.677 43.896C184.784 44.3867 185.008 44.7707 185.349 45.048C185.69 45.3253 186.16 45.5067 186.757 45.592C187.354 45.6773 188.154 45.72 189.157 45.72V47H176.453V45.72C177.157 45.6987 177.733 45.6347 178.181 45.528C178.629 45.4213 178.97 45.24 179.205 44.984C179.44 44.728 179.6 44.3653 179.685 43.896C179.77 43.4267 179.813 42.8187 179.813 42.072V27.288C179.813 26.5413 179.77 25.944 179.685 25.496C179.621 25.0267 179.482 24.664 179.269 24.408C179.056 24.1307 178.746 23.9493 178.341 23.864C177.957 23.7573 177.445 23.6827 176.805 23.64V22.36H187.877C191.12 22.36 193.573 22.936 195.237 24.088C196.901 25.24 197.733 26.9467 197.733 29.208ZM184.517 34.36H186.597C188.666 34.36 190.181 33.944 191.141 33.112C192.101 32.28 192.581 30.968 192.581 29.176C192.581 27.576 192.176 26.3387 191.365 25.464C190.554 24.5893 189.285 24.152 187.557 24.152H185.093C184.709 24.152 184.517 24.3333 184.517 24.696V34.36ZM206.174 41.752C206.174 42.6053 206.206 43.288 206.27 43.8C206.334 44.312 206.462 44.7067 206.654 44.984C206.846 45.2613 207.124 45.4533 207.486 45.56C207.849 45.6453 208.34 45.6987 208.958 45.72V47H198.878V45.72C199.476 45.6987 199.956 45.6347 200.318 45.528C200.702 45.4 200.99 45.208 201.182 44.952C201.396 44.6747 201.534 44.3013 201.598 43.832C201.684 43.3413 201.726 42.7227 201.726 41.976V28.76C201.726 27.5227 201.705 26.5093 201.662 25.72C201.62 24.9093 201.566 24.3547 201.502 24.056C201.396 23.5227 201.15 23.1707 200.766 23C200.404 22.8293 199.732 22.744 198.75 22.744V21.656L206.174 20.44V41.752ZM220.653 37.88C218.861 38.6907 217.507 39.448 216.589 40.152C215.693 40.8347 215.245 41.5493 215.245 42.296C215.245 42.9147 215.416 43.4053 215.757 43.768C216.099 44.1307 216.525 44.312 217.037 44.312C217.549 44.312 218.029 44.2267 218.477 44.056C218.925 43.864 219.309 43.6187 219.629 43.32C219.949 43.0213 220.195 42.6693 220.365 42.264C220.557 41.8373 220.653 41.3893 220.653 40.92V37.88ZM220.653 36.184V34.84C220.653 33.6027 220.429 32.7067 219.981 32.152C219.555 31.576 218.883 31.288 217.965 31.288C217.347 31.288 216.877 31.4587 216.557 31.8C216.237 32.12 215.939 32.664 215.661 33.432C215.469 33.9653 215.192 34.3813 214.829 34.68C214.488 34.9787 214.008 35.128 213.389 35.128C212.792 35.128 212.333 34.9467 212.013 34.584C211.693 34.2213 211.533 33.7093 211.533 33.048C211.533 32.024 212.088 31.2133 213.197 30.616C214.328 30.0187 216.024 29.72 218.285 29.72C220.675 29.72 222.381 30.1573 223.405 31.032C224.429 31.8853 224.941 33.3253 224.941 35.352V42.36C224.941 44.1733 225.304 45.08 226.029 45.08C226.435 45.08 226.808 44.9413 227.149 44.664L227.629 45.592C227.331 46.1253 226.861 46.552 226.221 46.872C225.603 47.1707 224.899 47.32 224.109 47.32C223.128 47.32 222.381 47.0213 221.869 46.424C221.357 45.8267 221.101 44.984 221.101 43.896H220.941C220.323 45.0053 219.523 45.848 218.541 46.424C217.56 47 216.44 47.288 215.181 47.288C213.837 47.288 212.76 46.9147 211.949 46.168C211.139 45.4 210.733 44.408 210.733 43.192C210.733 42.2533 211.149 41.3787 211.981 40.568C212.813 39.736 214.2 38.9253 216.141 38.136L220.653 36.184ZM236.244 41.784C236.244 42.6587 236.266 43.352 236.308 43.864C236.372 44.3547 236.49 44.7387 236.66 45.016C236.852 45.272 237.13 45.4427 237.492 45.528C237.876 45.6133 238.388 45.6773 239.028 45.72V47H228.948V45.72C229.567 45.6773 230.058 45.6133 230.42 45.528C230.804 45.4427 231.092 45.272 231.284 45.016C231.498 44.76 231.636 44.3973 231.7 43.928C231.764 43.4587 231.796 42.8187 231.796 42.008V38.008C231.796 36.7493 231.775 35.736 231.732 34.968C231.69 34.1787 231.636 33.6453 231.572 33.368C231.508 33.0907 231.423 32.8667 231.316 32.696C231.21 32.504 231.05 32.3653 230.836 32.28C230.623 32.1733 230.356 32.1093 230.036 32.088C229.716 32.0453 229.311 32.024 228.82 32.024V30.936L234.996 29.72L235.412 32.536H235.54C236.244 31.64 237.076 30.9467 238.036 30.456C238.996 29.9653 240.052 29.72 241.204 29.72C242.57 29.72 243.668 29.912 244.5 30.296C245.354 30.6587 246.111 31.2773 246.772 32.152C247.135 32.6427 247.455 33.2827 247.732 34.072C248.01 34.84 248.148 35.9067 248.148 37.272V41.784C248.148 42.6587 248.17 43.352 248.212 43.864C248.276 44.3547 248.394 44.7387 248.564 45.016C248.756 45.272 249.034 45.4427 249.396 45.528C249.759 45.6133 250.25 45.6773 250.868 45.72V47H240.852V45.72C241.492 45.6987 241.994 45.6453 242.356 45.56C242.74 45.4533 243.028 45.272 243.22 45.016C243.412 44.76 243.54 44.3973 243.604 43.928C243.668 43.4373 243.7 42.7973 243.7 42.008V37.656C243.7 36.568 243.636 35.6507 243.508 34.904C243.38 34.1573 243.167 33.56 242.868 33.112C242.591 32.6427 242.218 32.312 241.748 32.12C241.279 31.9067 240.692 31.8 239.988 31.8C239.306 31.8 238.719 31.992 238.228 32.376C237.738 32.76 237.311 33.2933 236.948 33.976C236.756 34.36 236.586 34.8613 236.436 35.48C236.308 36.0773 236.244 36.7067 236.244 37.368V41.784ZM259.494 41.784C259.494 42.6587 259.516 43.352 259.558 43.864C259.622 44.3547 259.74 44.7387 259.91 45.016C260.102 45.272 260.38 45.4427 260.742 45.528C261.126 45.6133 261.638 45.6773 262.278 45.72V47H252.198V45.72C252.817 45.6773 253.308 45.6133 253.67 45.528C254.054 45.4427 254.342 45.272 254.534 45.016C254.748 44.76 254.886 44.3973 254.95 43.928C255.014 43.4587 255.046 42.8187 255.046 42.008V38.008C255.046 36.7493 255.025 35.736 254.982 34.968C254.94 34.1787 254.886 33.6453 254.822 33.368C254.758 33.0907 254.673 32.8667 254.566 32.696C254.46 32.504 254.3 32.3653 254.086 32.28C253.873 32.1733 253.606 32.1093 253.286 32.088C252.966 32.0453 252.561 32.024 252.07 32.024V30.936L258.246 29.72L258.662 32.536H258.79C259.494 31.64 260.326 30.9467 261.286 30.456C262.246 29.9653 263.302 29.72 264.454 29.72C265.82 29.72 266.918 29.912 267.75 30.296C268.604 30.6587 269.361 31.2773 270.022 32.152C270.385 32.6427 270.705 33.2827 270.982 34.072C271.26 34.84 271.398 35.9067 271.398 37.272V41.784C271.398 42.6587 271.42 43.352 271.462 43.864C271.526 44.3547 271.644 44.7387 271.814 45.016C272.006 45.272 272.284 45.4427 272.646 45.528C273.009 45.6133 273.5 45.6773 274.118 45.72V47H264.102V45.72C264.742 45.6987 265.244 45.6453 265.606 45.56C265.99 45.4533 266.278 45.272 266.47 45.016C266.662 44.76 266.79 44.3973 266.854 43.928C266.918 43.4373 266.95 42.7973 266.95 42.008V37.656C266.95 36.568 266.886 35.6507 266.758 34.904C266.63 34.1573 266.417 33.56 266.118 33.112C265.841 32.6427 265.468 32.312 264.998 32.12C264.529 31.9067 263.942 31.8 263.238 31.8C262.556 31.8 261.969 31.992 261.478 32.376C260.988 32.76 260.561 33.2933 260.198 33.976C260.006 34.36 259.836 34.8613 259.686 35.48C259.558 36.0773 259.494 36.7067 259.494 37.368V41.784ZM291.8 44.024C289.859 46.2213 287.438 47.32 284.536 47.32C283.214 47.32 282.008 47.1173 280.92 46.712C279.854 46.2853 278.936 45.6987 278.168 44.952C277.4 44.184 276.803 43.2773 276.376 42.232C275.95 41.1867 275.736 40.024 275.736 38.744C275.736 37.4213 275.96 36.216 276.408 35.128C276.856 34.0187 277.486 33.0693 278.296 32.28C279.128 31.4693 280.099 30.84 281.208 30.392C282.339 29.944 283.576 29.72 284.92 29.72C287.182 29.72 288.942 30.328 290.2 31.544C291.459 32.76 292.088 34.4667 292.088 36.664C292.088 37.0053 292.035 37.2187 291.928 37.304C291.822 37.368 291.523 37.4 291.032 37.4H280.728C280.643 37.592 280.6 37.944 280.6 38.456C280.6 40.5467 281.048 42.2 281.944 43.416C282.862 44.632 284.099 45.24 285.656 45.24C286.552 45.24 287.438 45.0373 288.312 44.632C289.208 44.2267 290.072 43.6507 290.904 42.904L291.8 44.024ZM285.592 35.608C286.446 35.608 286.99 35.5653 287.224 35.48C287.48 35.3733 287.608 35.1387 287.608 34.776C287.608 33.8373 287.342 33.0693 286.808 32.472C286.275 31.8747 285.603 31.576 284.792 31.576C283.875 31.576 283.054 31.96 282.328 32.728C281.624 33.4747 281.166 34.4347 280.952 35.608H285.592ZM301.495 42.04C301.495 42.872 301.527 43.5333 301.591 44.024C301.676 44.4933 301.836 44.856 302.071 45.112C302.306 45.368 302.647 45.5387 303.095 45.624C303.543 45.688 304.14 45.72 304.887 45.72V47H294.199V45.72C294.839 45.6773 295.351 45.6133 295.735 45.528C296.119 45.4427 296.407 45.272 296.599 45.016C296.791 44.76 296.908 44.3973 296.951 43.928C297.015 43.4373 297.047 42.7867 297.047 41.976V38.072C297.047 36.7493 297.015 35.6933 296.951 34.904C296.887 34.1147 296.748 33.5067 296.535 33.08C296.322 32.6533 296.012 32.376 295.607 32.248C295.223 32.0987 294.711 32.024 294.071 32.024V30.904L300.471 29.72L300.983 33.4H301.111C301.687 32.2693 302.444 31.3733 303.383 30.712C304.322 30.0507 305.314 29.72 306.359 29.72C307.17 29.72 307.831 29.9227 308.343 30.328C308.855 30.7333 309.111 31.2453 309.111 31.864C309.111 32.5467 308.908 33.1227 308.503 33.592C308.119 34.0613 307.586 34.296 306.903 34.296C306.583 34.296 306.295 34.232 306.039 34.104C305.783 33.976 305.548 33.8373 305.335 33.688C305.143 33.5173 304.94 33.368 304.727 33.24C304.535 33.0907 304.332 33.016 304.119 33.016C303.714 33.016 303.33 33.2827 302.967 33.816C302.604 34.3493 302.306 35.064 302.071 35.96C301.9 36.6 301.762 37.3253 301.655 38.136C301.548 38.9253 301.495 39.7147 301.495 40.504V42.04Z" fill="#2C698D"/>
<path d="M43.5618 27.3608H40.4058C40.6708 27.3608 40.925 27.4691 41.1125 27.6617C41.2999 27.8543 41.4052 28.1156 41.4052 28.388C41.4052 28.6604 41.2999 28.9216 41.1125 29.1142C40.925 29.3069 40.6708 29.4151 40.4058 29.4151H32.4808L32.3866 31.4724H40.4058C40.6708 31.4724 40.925 31.3642 41.1125 31.1716C41.2999 30.979 41.4052 30.7177 41.4052 30.4453C41.4056 30.3102 41.38 30.1763 41.33 30.0513C41.2799 29.9263 41.2064 29.8127 41.1135 29.717C41.0207 29.6213 40.9104 29.5454 40.7889 29.4936C40.6675 29.4418 40.5373 29.4151 40.4058 29.4151H43.5618C43.6931 29.4151 43.823 29.3885 43.9443 29.3369C44.0655 29.2853 44.1757 29.2096 44.2685 29.1142C44.3613 29.0189 44.4349 28.9056 44.4851 28.781C44.5354 28.6564 44.5612 28.5228 44.5612 28.388C44.5612 28.2531 44.5354 28.1195 44.4851 27.9949C44.4349 27.8703 44.3613 27.7571 44.2685 27.6617C44.1757 27.5663 44.0655 27.4906 43.9443 27.439C43.823 27.3874 43.6931 27.3608 43.5618 27.3608Z" fill="#E0E1E2"/>
<path d="M49.8587 23.2523H46.3503C46.6154 23.2523 46.8696 23.3605 47.057 23.5532C47.2444 23.7458 47.3497 24.007 47.3497 24.2794C47.3497 24.5519 47.2444 24.8131 47.057 25.0057C46.8696 25.1983 46.6154 25.3066 46.3503 25.3066H49.8587C49.99 25.3066 50.1199 25.28 50.2412 25.2284C50.3624 25.1768 50.4726 25.1011 50.5654 25.0057C50.6582 24.9103 50.7318 24.7971 50.782 24.6725C50.8323 24.5479 50.8581 24.4143 50.8581 24.2794C50.8581 24.1446 50.8323 24.011 50.782 23.8864C50.7318 23.7618 50.6582 23.6485 50.5654 23.5532C50.4726 23.4578 50.3624 23.3821 50.2412 23.3305C50.1199 23.2789 49.99 23.2523 49.8587 23.2523Z" fill="#E0E1E2"/>
<path d="M46.3504 25.3065H43.5619C43.8269 25.3065 44.0811 25.4147 44.2685 25.6074C44.456 25.8 44.5613 26.0612 44.5613 26.3336C44.5613 26.6061 44.456 26.8673 44.2685 27.0599C44.0811 27.2525 43.8269 27.3608 43.5619 27.3608H46.3504C46.6154 27.3608 46.8696 27.2525 47.057 27.0599C47.2445 26.8673 47.3498 26.6061 47.3498 26.3336C47.3498 26.0612 47.2445 25.8 47.057 25.6074C46.8696 25.4147 46.6154 25.3065 46.3504 25.3065Z" fill="#E0E1E2"/>
<path d="M14.9206 24.2794C14.9206 24.007 15.0259 23.7458 15.2133 23.5532C15.4008 23.3605 15.6549 23.2523 15.92 23.2523H12.4116C12.1465 23.2523 11.8924 23.3605 11.7049 23.5532C11.5175 23.7458 11.4122 24.007 11.4122 24.2794C11.4122 24.5519 11.5175 24.8131 11.7049 25.0057C11.8924 25.1983 12.1465 25.3066 12.4116 25.3066H15.92C15.6549 25.3066 15.4008 25.1983 15.2133 25.0057C15.0259 24.8131 14.9206 24.5519 14.9206 24.2794Z" fill="#E0E1E2"/>
<path d="M24.0546 29.4151H21.8645C21.5995 29.4151 21.3453 29.3069 21.1579 29.1142C20.9704 28.9216 20.8652 28.6604 20.8652 28.388C20.8652 28.1156 20.9704 27.8543 21.1579 27.6617C21.3453 27.4691 21.5995 27.3608 21.8645 27.3608H18.7085C18.5772 27.3608 18.4473 27.3874 18.326 27.439C18.2048 27.4906 18.0946 27.5663 18.0018 27.6617C17.909 27.7571 17.8354 27.8703 17.7852 27.9949C17.735 28.1195 17.7091 28.2531 17.7091 28.388C17.7091 28.5228 17.735 28.6564 17.7852 28.781C17.8354 28.9056 17.909 29.0189 18.0018 29.1142C18.0946 29.2096 18.2048 29.2853 18.326 29.3369C18.4473 29.3885 18.5772 29.4151 18.7085 29.4151H21.8645C21.733 29.4151 21.6028 29.4418 21.4814 29.4936C21.3599 29.5454 21.2496 29.6213 21.1568 29.717C21.0639 29.8127 20.9904 29.9263 20.9403 30.0513C20.8903 30.1763 20.8648 30.3102 20.8652 30.4453C20.8652 30.7177 20.9704 30.979 21.1579 31.1716C21.3453 31.3642 21.5995 31.4724 21.8645 31.4724H29.8837L29.7896 29.4151H24.0546Z" fill="#E0E1E2"/>
<path d="M17.709 26.3336C17.709 26.0612 17.8143 25.8 18.0017 25.6074C18.1892 25.4147 18.4433 25.3065 18.7084 25.3065H15.9199C15.6548 25.3065 15.4007 25.4147 15.2132 25.6074C15.0258 25.8 14.9205 26.0612 14.9205 26.3336C14.9205 26.6061 15.0258 26.8673 15.2132 27.0599C15.4007 27.2525 15.6548 27.3608 15.9199 27.3608H18.7084C18.4433 27.3608 18.1892 27.2525 18.0017 27.0599C17.8143 26.8673 17.709 26.6061 17.709 26.3336Z" fill="#E0E1E2"/>
<path d="M29.6498 26.3586C29.1941 26.184 28.7709 25.9306 28.3983 25.6094L28.6687 31.4724H29.8837L29.6498 26.3586Z" fill="#E0E1E2"/>
<path d="M33.872 25.6094C33.4994 25.9306 33.0761 26.184 32.6205 26.3586L32.3866 31.4724H33.6016L33.872 25.6094Z" fill="#E0E1E2"/>
<path d="M31.5999 18.9877V18.0323H30.6704V18.9877H29.7439V19.9399H30.6704V20.8921H31.5999V19.9399H32.5263V18.9877H31.5999Z" fill="#2C698D"/>
<path d="M22.1683 25.7748H15.92C15.7991 25.7748 15.6833 25.7255 15.5978 25.6377C15.5124 25.5499 15.4644 25.4307 15.4644 25.3065C15.4644 25.1824 15.5124 25.0632 15.5978 24.9754C15.6833 24.8876 15.7991 24.8383 15.92 24.8383H22.1683C22.2891 24.8383 22.405 24.8876 22.4905 24.9754C22.5759 25.0632 22.6239 25.1824 22.6239 25.3065C22.6239 25.4307 22.5759 25.5499 22.4905 25.6377C22.405 25.7255 22.2891 25.7748 22.1683 25.7748Z" fill="#2C698D"/>
<path d="M24.659 27.8353H18.8603C18.7395 27.8353 18.6236 27.7859 18.5381 27.6981C18.4527 27.6103 18.4047 27.4912 18.4047 27.367C18.4047 27.2428 18.4527 27.1237 18.5381 27.0358C18.6236 26.948 18.7395 26.8987 18.8603 26.8987H24.659C24.7799 26.8987 24.8958 26.948 24.9812 27.0358C25.0667 27.1237 25.1147 27.2428 25.1147 27.367C25.1147 27.4912 25.0667 27.6103 24.9812 27.6981C24.8958 27.7859 24.7799 27.8353 24.659 27.8353Z" fill="#2C698D"/>
<path d="M26.3965 29.8834H21.8645C21.7436 29.8834 21.6277 29.834 21.5423 29.7462C21.4568 29.6584 21.4088 29.5393 21.4088 29.4151C21.4088 29.2909 21.4568 29.1718 21.5423 29.0839C21.6277 28.9961 21.7436 28.9468 21.8645 28.9468H26.3965C26.5174 28.9468 26.6333 28.9961 26.7187 29.0839C26.8041 29.1718 26.8522 29.2909 26.8522 29.4151C26.8522 29.5393 26.8041 29.6584 26.7187 29.7462C26.6333 29.834 26.5174 29.8834 26.3965 29.8834Z" fill="#2C698D"/>
<path d="M46.3504 25.7748H40.1021C39.9813 25.7748 39.8654 25.7255 39.7799 25.6377C39.6945 25.5499 39.6465 25.4307 39.6465 25.3065C39.6465 25.1824 39.6945 25.0632 39.7799 24.9754C39.8654 24.8876 39.9813 24.8383 40.1021 24.8383H46.3504C46.4713 24.8383 46.5872 24.8876 46.6726 24.9754C46.7581 25.0632 46.8061 25.1824 46.8061 25.3065C46.8061 25.4307 46.7581 25.5499 46.6726 25.6377C46.5872 25.7255 46.4713 25.7748 46.3504 25.7748Z" fill="#2C698D"/>
<path d="M43.41 27.8353H37.6113C37.4904 27.8353 37.3745 27.7859 37.2891 27.6981C37.2036 27.6103 37.1556 27.4912 37.1556 27.367C37.1556 27.2428 37.2036 27.1237 37.2891 27.0358C37.3745 26.948 37.4904 26.8987 37.6113 26.8987H43.41C43.5309 26.8987 43.6467 26.948 43.7322 27.0358C43.8176 27.1237 43.8656 27.2428 43.8656 27.367C43.8656 27.4912 43.8176 27.6103 43.7322 27.6981C43.6467 27.7859 43.5309 27.8353 43.41 27.8353Z" fill="#2C698D"/>
<path d="M40.4059 29.8834H35.8738C35.753 29.8834 35.6371 29.834 35.5517 29.7462C35.4662 29.6584 35.4182 29.5393 35.4182 29.4151C35.4182 29.2909 35.4662 29.1718 35.5517 29.0839C35.6371 28.9961 35.753 28.9468 35.8738 28.9468H40.4059C40.5268 28.9468 40.6427 28.9961 40.7281 29.0839C40.8135 29.1718 40.8616 29.2909 40.8616 29.4151C40.8616 29.5393 40.8135 29.6584 40.7281 29.7462C40.6427 29.834 40.5268 29.8834 40.4059 29.8834Z" fill="#2C698D"/>
<path d="M40.4058 31.9407H32.3866C32.3246 31.9407 32.2633 31.9277 32.2064 31.9025C32.1494 31.8772 32.0981 31.8403 32.0555 31.794C32.0131 31.7485 31.9801 31.6946 31.9587 31.6355C31.9373 31.5765 31.9279 31.5135 31.931 31.4506L32.1649 26.3368C32.1697 26.245 32.2004 26.1565 32.2533 26.0822C32.3061 26.0079 32.3788 25.9511 32.4626 25.9185C33.0519 25.6948 33.5781 25.3245 33.9942 24.8407C34.4103 24.357 34.7033 23.7748 34.8471 23.1462C34.8704 23.0433 34.9269 22.9514 35.0074 22.8857C35.0879 22.8199 35.1877 22.7841 35.2906 22.7841H49.8588C50.2447 22.7841 50.6148 22.9416 50.8876 23.2221C51.1605 23.5025 51.3138 23.8829 51.3138 24.2795C51.3138 24.6761 51.1605 25.0564 50.8876 25.3369C50.6148 25.6173 50.2447 25.7749 49.8588 25.7749H47.6991C47.7701 25.9521 47.8063 26.142 47.8054 26.3337C47.8046 26.7301 47.651 27.11 47.3783 27.3902C47.1056 27.6705 46.736 27.8283 46.3504 27.8291H44.9106C44.9799 28.0069 45.0159 28.1965 45.0169 28.388C45.0169 28.7846 44.8636 29.1649 44.5907 29.4454C44.3179 29.7258 43.9478 29.8834 43.5619 29.8834H41.7545C41.8256 30.0617 41.8617 30.2526 41.8608 30.4453C41.86 30.8417 41.7065 31.2216 41.4338 31.5018C41.1611 31.7821 40.7915 31.9399 40.4058 31.9407ZM32.8635 31.0042H40.4058C40.5434 30.9936 40.672 30.93 40.7659 30.826C40.8597 30.7221 40.9119 30.5856 40.9119 30.4438C40.9119 30.302 40.8597 30.1654 40.7659 30.0615C40.672 29.9576 40.5434 29.8939 40.4058 29.8834C40.285 29.8834 40.1691 29.834 40.0837 29.7462C39.9982 29.6584 39.9502 29.5393 39.9502 29.4151C39.9502 29.2909 39.9982 29.1718 40.0837 29.0839C40.1691 28.9961 40.285 28.9468 40.4058 28.9468H43.5619C43.7061 28.9468 43.8444 28.8879 43.9464 28.7831C44.0483 28.6783 44.1056 28.5362 44.1056 28.388C44.1056 28.2397 44.0483 28.0976 43.9464 27.9928C43.8444 27.888 43.7061 27.8291 43.5619 27.8291C43.441 27.8291 43.3252 27.7798 43.2397 27.692C43.1543 27.6041 43.1063 27.485 43.1063 27.3608C43.1063 27.2366 43.1543 27.1175 43.2397 27.0297C43.3252 26.9419 43.441 26.8925 43.5619 26.8925H46.3504C46.4946 26.8925 46.6329 26.8337 46.7349 26.7289C46.8368 26.6241 46.8941 26.4819 46.8941 26.3337C46.8941 26.1855 46.8368 26.0434 46.7349 25.9386C46.6329 25.8338 46.4946 25.7749 46.3504 25.7749C46.2295 25.7749 46.1137 25.7255 46.0282 25.6377C45.9428 25.5499 45.8948 25.4308 45.8948 25.3066C45.8948 25.1824 45.9428 25.0633 46.0282 24.9755C46.1137 24.8876 46.2295 24.8383 46.3504 24.8383H49.8588C50.003 24.8383 50.1413 24.7794 50.2433 24.6746C50.3452 24.5698 50.4025 24.4277 50.4025 24.2795C50.4025 24.1313 50.3452 23.9891 50.2433 23.8843C50.1413 23.7795 50.003 23.7206 49.8588 23.7206H35.6368C35.4352 24.3726 35.1014 24.9732 34.6574 25.4828C34.2134 25.9924 33.6693 26.3995 33.061 26.6771L32.8635 31.0042Z" fill="#2C698D"/>
<path d="M29.8837 31.9407H21.8645C21.4788 31.9399 21.1092 31.7821 20.8365 31.5018C20.5638 31.2216 20.4103 30.8417 20.4095 30.4453C20.4086 30.2526 20.4447 30.0617 20.5158 29.8834H18.7084C18.3226 29.8834 17.9525 29.7258 17.6796 29.4454C17.4067 29.1649 17.2534 28.7846 17.2534 28.388C17.2544 28.1965 17.2905 28.0069 17.3598 27.8291H15.9199C15.5343 27.8283 15.1647 27.6705 14.892 27.3902C14.6193 27.11 14.4657 26.7301 14.4649 26.3337C14.4641 26.142 14.5002 25.9521 14.5713 25.7749H12.4115C12.0257 25.7749 11.6556 25.6173 11.3827 25.3369C11.1098 25.0564 10.9565 24.6761 10.9565 24.2795C10.9565 23.8829 11.1098 23.5025 11.3827 23.2221C11.6556 22.9416 12.0257 22.7841 12.4115 22.7841H26.9798C27.0826 22.7841 27.1824 22.8199 27.2629 22.8857C27.3434 22.9514 27.3999 23.0433 27.4232 23.1462C27.567 23.7748 27.86 24.357 28.2761 24.8407C28.6922 25.3245 29.2184 25.6948 29.8077 25.9185C29.8915 25.9511 29.9642 26.0079 30.0171 26.0822C30.0699 26.1565 30.1006 26.245 30.1054 26.3368L30.3393 31.4506C30.3425 31.5135 30.333 31.5765 30.3116 31.6355C30.2902 31.6946 30.2572 31.7485 30.2148 31.794C30.1722 31.8403 30.1209 31.8772 30.064 31.9025C30.007 31.9277 29.9457 31.9407 29.8837 31.9407ZM21.8645 29.8834C21.7269 29.8939 21.5983 29.9576 21.5044 30.0615C21.4106 30.1654 21.3584 30.302 21.3584 30.4438C21.3584 30.5856 21.4106 30.7221 21.5044 30.826C21.5983 30.93 21.7269 30.9936 21.8645 31.0042H29.4068L29.2093 26.6771C28.6011 26.3995 28.057 25.9924 27.613 25.4828C27.1689 24.9732 26.8351 24.3726 26.6335 23.7206H12.4115C12.2673 23.7206 12.129 23.7795 12.0271 23.8843C11.9251 23.9891 11.8678 24.1313 11.8678 24.2795C11.8678 24.4277 11.9251 24.5698 12.0271 24.6746C12.129 24.7794 12.2673 24.8383 12.4115 24.8383H15.9199C16.0408 24.8383 16.1567 24.8876 16.2421 24.9755C16.3276 25.0633 16.3756 25.1824 16.3756 25.3066C16.3756 25.4308 16.3276 25.5499 16.2421 25.6377C16.1567 25.7255 16.0408 25.7749 15.9199 25.7749C15.7757 25.7749 15.6374 25.8338 15.5355 25.9386C15.4335 26.0434 15.3762 26.1855 15.3762 26.3337C15.3762 26.4819 15.4335 26.6241 15.5355 26.7289C15.6374 26.8337 15.7757 26.8925 15.9199 26.8925H18.7084C18.8293 26.8925 18.9452 26.9419 19.0306 27.0297C19.1161 27.1175 19.1641 27.2366 19.1641 27.3608C19.1641 27.485 19.1161 27.6041 19.0306 27.692C18.9452 27.7798 18.8293 27.8291 18.7084 27.8291C18.637 27.8291 18.5663 27.8436 18.5004 27.8717C18.4344 27.8998 18.3745 27.9409 18.324 27.9928C18.2735 28.0447 18.2334 28.1063 18.2061 28.1741C18.1788 28.2419 18.1647 28.3146 18.1647 28.388C18.1647 28.4613 18.1788 28.534 18.2061 28.6018C18.2334 28.6696 18.2735 28.7312 18.324 28.7831C18.3745 28.835 18.4344 28.8762 18.5004 28.9043C18.5663 28.9323 18.637 28.9468 18.7084 28.9468H21.8645C21.9853 28.9468 22.1012 28.9961 22.1867 29.0839C22.2721 29.1718 22.3201 29.2909 22.3201 29.4151C22.3201 29.5393 22.2721 29.6584 22.1867 29.7462C22.1012 29.834 21.9853 29.8834 21.8645 29.8834Z" fill="#2C698D"/>
<path d="M29.1668 46.5827C29.046 46.5827 28.9301 46.5333 28.8446 46.4455C28.7592 46.3577 28.7112 46.2386 28.7112 46.1144V45.5556C28.712 44.6376 29.0672 43.7574 29.6987 43.1083C30.3303 42.4592 31.1867 42.0942 32.0798 42.0933H32.4899C32.7936 42.0933 33.0849 41.9693 33.2997 41.7486C33.5144 41.5279 33.6351 41.2285 33.6351 40.9163C33.6351 40.6042 33.5144 40.3048 33.2997 40.0841C33.0849 39.8634 32.7936 39.7394 32.4899 39.7394H29.1911C28.578 39.7394 27.9901 39.4891 27.5566 39.0435C27.1231 38.598 26.8795 37.9937 26.8795 37.3636C26.8795 36.7335 27.1231 36.1292 27.5566 35.6836C27.9901 35.2381 28.578 34.9878 29.1911 34.9878H32.0373C32.7063 34.9869 33.3475 34.7132 33.8203 34.2268C34.293 33.7403 34.5585 33.0809 34.5585 32.3934V31.4724C34.5585 31.3482 34.6065 31.2291 34.692 31.1413C34.7774 31.0535 34.8933 31.0042 35.0141 31.0042C35.135 31.0042 35.2509 31.0535 35.3363 31.1413C35.4218 31.2291 35.4698 31.3482 35.4698 31.4724V32.3934C35.469 33.3291 35.1072 34.2262 34.4637 34.8881C33.8203 35.5501 32.9477 35.9227 32.0373 35.9243H29.1911C28.8197 35.9243 28.4635 36.076 28.2009 36.3459C27.9383 36.6158 27.7908 36.9819 27.7908 37.3636C27.7908 37.7453 27.9383 38.1113 28.2009 38.3812C28.4635 38.6512 28.8197 38.8028 29.1911 38.8028H32.4899C33.0353 38.8028 33.5584 39.0255 33.944 39.4218C34.3297 39.8182 34.5464 40.3558 34.5464 40.9163C34.5464 41.4769 34.3297 42.0145 33.944 42.4109C33.5584 42.8072 33.0353 43.0299 32.4899 43.0299H32.0798C31.4284 43.0307 30.8038 43.2971 30.3431 43.7706C29.8824 44.244 29.6233 44.886 29.6224 45.5556V46.1144C29.6224 46.2386 29.5744 46.3577 29.489 46.4455C29.4035 46.5333 29.2877 46.5827 29.1668 46.5827Z" fill="#2C698D"/>
<path d="M33.1825 46.5827C33.0616 46.5827 32.9458 46.5333 32.8603 46.4455C32.7749 46.3577 32.7269 46.2386 32.7269 46.1144V45.5556C32.7269 44.8863 32.4684 44.2443 32.0082 43.7708C31.548 43.2972 30.9237 43.0307 30.2725 43.0299H29.8594C29.314 43.0299 28.7909 42.8072 28.4053 42.4109C28.0196 42.0145 27.8029 41.4769 27.8029 40.9163C27.8029 40.3558 28.0196 39.8182 28.4053 39.4218C28.7909 39.0255 29.314 38.8028 29.8594 38.8028H33.1582C33.5296 38.8028 33.8858 38.6512 34.1484 38.3812C34.411 38.1113 34.5585 37.7453 34.5585 37.3636C34.5585 36.9819 34.411 36.6158 34.1484 36.3459C33.8858 36.076 33.5296 35.9243 33.1582 35.9243H30.315C29.4041 35.9235 28.5307 35.5512 27.8866 34.8892C27.2425 34.2273 26.8803 33.3296 26.8795 32.3934V31.4724C26.8795 31.3482 26.9275 31.2291 27.013 31.1413C27.0984 31.0535 27.2143 31.0042 27.3352 31.0042C27.456 31.0042 27.5719 31.0535 27.6573 31.1413C27.7428 31.2291 27.7908 31.3482 27.7908 31.4724V32.3934C27.7916 33.0812 28.0578 33.7406 28.531 34.227C29.0042 34.7133 29.6458 34.9869 30.315 34.9878H33.1582C33.7713 34.9878 34.3592 35.2381 34.7927 35.6836C35.2262 36.1292 35.4698 36.7335 35.4698 37.3636C35.4698 37.9937 35.2262 38.598 34.7927 39.0435C34.3592 39.4891 33.7713 39.7394 33.1582 39.7394H29.8594C29.5557 39.7394 29.2644 39.8634 29.0496 40.0841C28.8349 40.3048 28.7142 40.6042 28.7142 40.9163C28.7142 41.2285 28.8349 41.5279 29.0496 41.7486C29.2644 41.9693 29.5557 42.0933 29.8594 42.0933H30.2725C31.1654 42.0942 32.0214 42.4593 32.6525 43.1085C33.2836 43.7577 33.6381 44.6379 33.6381 45.5556V46.1144C33.6381 46.2386 33.5901 46.3577 33.5047 46.4455C33.4192 46.5333 33.3033 46.5827 33.1825 46.5827Z" fill="#2C698D"/>
<path d="M31.1351 49.1989C30.8952 49.1984 30.6647 49.1031 30.4911 48.9329C30.3176 48.7627 30.2143 48.5304 30.2026 48.2841L29.0027 22.2002C28.6015 21.8706 28.2781 21.4519 28.0567 20.9756C27.8352 20.4993 27.7214 19.9777 27.7239 19.4498C27.73 17.5516 29.2397 15.9844 31.0865 15.9563C31.7977 15.9454 32.4944 16.1633 33.0792 16.5795C33.664 16.9956 34.1076 17.5892 34.3479 18.2773C34.5882 18.9653 34.6133 19.7134 34.4196 20.4168C34.2259 21.1202 33.823 21.7437 33.2675 22.2002L32.0677 48.2841C32.056 48.5304 31.9527 48.7627 31.7791 48.9329C31.6056 49.1031 31.375 49.1984 31.1351 49.1989ZM31.1351 16.8929H31.0987C29.7469 16.9116 28.6382 18.0605 28.6352 19.4529C28.634 19.869 28.731 20.2792 28.9177 20.6483C29.1044 21.0175 29.3754 21.3347 29.7075 21.5727C29.7645 21.6139 29.8117 21.6679 29.8454 21.7307C29.8791 21.7935 29.8984 21.8633 29.9019 21.9349L31.1139 48.2404C31.1139 48.2462 31.1161 48.2518 31.1201 48.2559C31.1241 48.26 31.1295 48.2623 31.1351 48.2623C31.1408 48.2623 31.1462 48.26 31.1502 48.2559C31.1541 48.2518 31.1564 48.2462 31.1564 48.2404L32.3684 21.9349C32.3719 21.8633 32.3912 21.7935 32.4249 21.7307C32.4586 21.6679 32.5057 21.6139 32.5628 21.5727C33.0003 21.2605 33.3293 20.8128 33.5019 20.2949C33.6745 19.777 33.6817 19.2159 33.5223 18.6936C33.3629 18.1712 33.0454 17.7148 32.616 17.3909C32.1866 17.067 31.6678 16.8925 31.1351 16.8929Z" fill="#2C698D"/>
</svg>
