<svg width="24" height="24" viewBox="0 0 24 24" fill="none" xmlns="http://www.w3.org/2000/svg">
    <path
        d="M20.6084 8.95599L13.5018 3.50083C12.6311 2.83306 11.3679 2.83306 10.4973 3.50083L3.39157 8.9551C3.14213 9.14627 3 9.42903 3 9.73135V19.9952C3 20.5465 3.47534 21 4.05893 21H8.82367C9.40726 21 9.8826 20.5465 9.8826 19.9952V13.4988H14.1174V19.9952C14.1174 20.5465 14.5927 21 15.1763 21H19.9411C20.5247 21 21 20.5465 21 19.9952V9.73135C20.9991 9.42903 20.8569 9.14627 20.6084 8.95599ZM19.9401 20.0006H15.1754V13.4944C15.1754 12.9431 14.7 12.4994 14.1165 12.4994H9.88166C9.29807 12.4994 8.82273 12.9431 8.82273 13.4944V20.0006H4.05893V9.73135L11.1656 4.27709C11.6484 3.90541 12.3516 3.9063 12.8344 4.27709L19.9411 9.73135L19.9401 20.0006Z"
        fill="#7d8189" />
</svg>