<svg width="16" height="16" viewBox="0 0 16 16" fill="none" xmlns="http://www.w3.org/2000/svg">
<g clip-path="url(#clip0_558_1293)">
<path d="M8 7C8.55228 7 9 6.55228 9 6C9 5.44772 8.55228 5 8 5C7.44772 5 7 5.44772 7 6C7 6.55228 7.44772 7 8 7Z" stroke="white" stroke-linecap="round" stroke-linejoin="round"/>
<path d="M10.62 5.9535C10.6299 6.39478 10.5193 6.83042 10.3 7.2135C9.76001 8.10016 8.00001 10.6668 8.00001 10.6668C8.00001 10.6668 6.24001 8.10016 5.70001 7.2135C5.48073 6.83042 5.37009 6.39478 5.38001 5.9535C5.38001 5.25863 5.65604 4.59222 6.14739 4.10088C6.63873 3.60953 7.30514 3.3335 8.00001 3.3335C8.69487 3.3335 9.36128 3.60953 9.85263 4.10088C10.344 4.59222 10.62 5.25863 10.62 5.9535Z" stroke="white" stroke-linecap="round" stroke-linejoin="round"/>
<path d="M8.82667 9.45312C9.49333 9.65979 10 10.1198 10 10.6665C10 11.3998 9.10667 11.9998 8 11.9998C6.89333 11.9998 6 11.3998 6 10.6665C6 10.1265 6.48 9.65979 7.17333 9.45312" stroke="white" stroke-linecap="round" stroke-linejoin="round"/>
</g>
<defs>
<clipPath id="clip0_558_1293">
<rect width="16" height="16" fill="white"/>
</clipPath>
</defs>
</svg>
