<svg width="40" height="40" viewBox="0 0 40 40" fill="none" xmlns="http://www.w3.org/2000/svg">
<path d="M23.9387 2.77328C22.7654 2.40262 21.5174 2.19995 20.2214 2.19995C16.44 2.19995 13.056 3.90928 10.8 6.59462L16.6134 11.4853L23.9387 2.77328Z" fill="#1A73E8"/>
<path d="M10.7972 6.59473C8.99988 8.73339 7.91455 11.4934 7.91455 14.5041C7.91455 16.8187 8.37588 18.6934 9.13322 20.3734L16.6106 11.4854L10.7972 6.59473Z" fill="#EA4335"/>
<path d="M20.2213 9.8001C22.8213 9.8001 24.9279 11.9068 24.9279 14.5068C24.9279 15.6641 24.5093 16.7254 23.8159 17.5441C23.8159 17.5441 27.5333 13.1228 31.1413 8.83477C29.6506 5.9681 27.0666 3.76277 23.9413 2.77344L16.6106 11.4854C17.4746 10.4534 18.7706 9.8001 20.2213 9.8001Z" fill="#4285F4"/>
<path d="M20.2213 19.2107C17.6213 19.2107 15.5146 17.104 15.5146 14.504C15.5146 13.3547 15.928 12.3013 16.6106 11.4827L9.1333 20.3733C10.4106 23.208 12.536 25.4827 14.7253 28.3493L23.8133 17.544C22.952 18.5627 21.6613 19.2107 20.2213 19.2107Z" fill="#FBBC04"/>
<path d="M23.6347 31.2987C27.7387 24.8801 32.5254 21.9654 32.5254 14.504C32.5254 12.4587 32.024 10.5307 31.1414 8.83472L14.728 28.3494C15.424 29.2614 16.1254 30.2321 16.8107 31.3014C19.3067 35.1574 18.6134 37.4694 20.224 37.4694C21.8294 37.4694 21.1387 35.1547 23.6347 31.2987Z" fill="#34A853"/>
</svg>
