<svg width="16" height="16" viewBox="0 0 16 16" fill="none" xmlns="http://www.w3.org/2000/svg">
<g clip-path="url(#clip0_324_2272)">
<path d="M15.2999 3.25001C14.4999 2.40001 13.6499 1.55001 12.7999 0.725012C12.6249 0.550012 12.4249 0.450012 12.1999 0.450012C11.9749 0.450012 11.7499 0.525012 11.5999 0.700012L2.17494 10.05C2.02494 10.2 1.92494 10.375 1.84994 10.55L0.474939 14.75C0.399939 14.95 0.449939 15.15 0.549939 15.3C0.674939 15.45 0.849939 15.55 1.07494 15.55H1.17494L5.44994 14.125C5.64994 14.05 5.82494 13.95 5.94994 13.8L15.3249 4.45001C15.4749 4.30001 15.5749 4.07501 15.5749 3.85001C15.5749 3.62501 15.4749 3.42501 15.2999 3.25001ZM5.14994 13.025C5.12494 13.05 5.09994 13.05 5.07494 13.075L1.84994 14.15L2.92494 10.925C2.92494 10.9 2.94994 10.875 2.97494 10.85L9.84994 4.00001L12.0249 6.17501L5.14994 13.025ZM12.7999 5.37501L10.6249 3.20001L12.1499 1.67501C12.8749 2.37501 13.5999 3.12501 14.2999 3.85001L12.7999 5.37501Z" fill="#2C698D"/>
</g>
<defs>
<clipPath id="clip0_324_2272">
<rect width="16" height="16" fill="white"/>
</clipPath>
</defs>
</svg>
