<svg width="24" height="24" viewBox="0 0 24 24" fill="none" xmlns="http://www.w3.org/2000/svg">
<path d="M12 10.5C9.1875 10.5 6.9375 8.28755 6.9375 5.58755C6.9375 2.88755 9.1875 0.675049 12 0.675049C14.8125 0.675049 17.0625 2.88755 17.0625 5.58755C17.0625 8.28755 14.8125 10.5 12 10.5ZM12 2.36255C10.125 2.36255 8.625 3.82505 8.625 5.58755C8.625 7.35005 10.125 8.81255 12 8.81255C13.875 8.81255 15.375 7.35005 15.375 5.58755C15.375 3.82505 13.875 2.36255 12 2.36255Z" fill="#7F8080"/>
<path d="M19.3875 23.3626H4.61251C3.86251 23.3626 3.26251 22.7626 3.26251 22.0126V18.6376C3.26251 14.9626 6.26251 11.9626 9.93751 11.9626H14.1C17.775 11.9626 20.775 14.9626 20.775 18.6376V22.0126C20.7375 22.7251 20.1375 23.3626 19.3875 23.3626ZM4.95001 21.6751H19.0875V18.6376C19.0875 15.9001 16.8375 13.6501 14.1 13.6501H9.90001C7.16251 13.6501 4.91251 15.9001 4.91251 18.6376V21.6751H4.95001Z" fill="#7F8080"/>
</svg>
