<svg viewBox="0 0 36 36" fill="none" xmlns="http://www.w3.org/2000/svg">
    <path d="M0 0H18C27.9411 0 36 8.05888 36 18C36 27.9411 27.9411 36 18 36H0V0Z" fill="#2C698D" />
    <path
        d="M27.1875 25.4063L22.0313 21.2188C24.1563 18.3125 23.9375 14.1563 21.2812 11.5313C19.875 10.125 18 9.34375 16 9.34375C14 9.34375 12.125 10.125 10.7188 11.5313C7.8125 14.4375 7.8125 19.1875 10.7188 22.0938C12.125 23.5 14 24.2813 16 24.2813C17.9062 24.2813 19.6875 23.5625 21.0938 22.2813L26.3125 26.5C26.4375 26.5938 26.5938 26.6563 26.75 26.6563C26.9688 26.6563 27.1562 26.5625 27.2812 26.4063C27.5312 26.0938 27.5 25.6563 27.1875 25.4063ZM16 22.875C14.375 22.875 12.875 22.25 11.7188 21.0938C9.34375 18.7188 9.34375 14.875 11.7188 12.5313C12.875 11.375 14.375 10.75 16 10.75C17.625 10.75 19.125 11.375 20.2812 12.5313C22.6562 14.9063 22.6562 18.75 20.2812 21.0938C19.1562 22.25 17.625 22.875 16 22.875Z"
        fill="white" />
</svg>
