<svg width="16" height="16" viewBox="0 0 16 16" fill="none" xmlns="http://www.w3.org/2000/svg">
    <g clip-path="url(#clip0_118_162)">
        <path
            d="M8.02505 4.90002C6.32505 4.90002 4.92505 6.30002 4.92505 8.00002C4.92505 9.72502 6.32505 11.1 8.02505 11.1C9.72505 11.1 11.125 9.72502 11.125 8.00002C11.125 6.30002 9.72505 4.90002 8.02505 4.90002ZM8.02505 10C6.92505 10 6.05005 9.10002 6.05005 8.02502C6.05005 6.92502 6.92505 6.05002 8.02505 6.05002C9.12505 6.05002 10 6.92502 10 8.00002C10 9.10002 9.10005 10 8.02505 10Z"
            fill="#7D8189" />
        <path
            d="M15.175 9.52505L13.775 8.75005C13.825 8.47505 13.85 8.20005 13.85 7.92505C13.85 7.62505 13.825 7.35005 13.8 7.07505L15.225 6.27505C15.55 6.10005 15.675 5.70005 15.525 5.35005L14.075 2.90005C13.9 2.60005 13.5 2.47505 13.175 2.60005L11.675 3.42505C11.6 3.37505 11.525 3.30005 11.475 3.25005C11.2 3.02505 10.95 2.80005 10.55 2.60005C10.525 2.60005 10.5 2.57505 10.5 2.52505V1.62505C10.5 0.975049 9.97499 0.425049 9.29999 0.425049H6.72499C6.07499 0.425049 5.52499 0.975049 5.52499 1.62505V2.60005C5.52499 2.62505 5.49999 2.65005 5.47499 2.67505C5.09999 2.85005 4.82499 3.10005 4.52499 3.32505C4.47499 3.37505 4.39999 3.42505 4.34999 3.47505L3.02499 2.72505C2.52499 2.45005 2.09999 2.62505 1.92499 2.92505L0.549989 5.30005C0.474989 5.50005 0.449989 5.70005 0.499989 5.90005C0.549989 6.10005 0.674989 6.25005 0.849989 6.35005L2.24999 7.10005C2.19999 7.35005 2.19999 7.62505 2.19999 7.95005C2.19999 8.22505 2.22499 8.50005 2.24999 8.77505L0.799989 9.57505C0.474989 9.75005 0.349989 10.15 0.499989 10.5L1.94999 12.95C2.12499 13.25 2.49999 13.375 2.84999 13.25L4.34999 12.425C4.42499 12.475 4.47499 12.525 4.54999 12.6C4.82499 12.85 5.09999 13.075 5.49999 13.25C5.52499 13.25 5.54999 13.275 5.54999 13.325V14.4C5.54999 15.05 6.07499 15.6 6.74999 15.6H9.29999C9.94999 15.6 10.5 15.05 10.5 14.4V13.25C10.5 13.225 10.525 13.2 10.55 13.175C10.925 13 11.175 12.775 11.475 12.525C11.55 12.475 11.6 12.425 11.675 12.35L13 13.1C13.5 13.375 13.9 13.2 14.1 12.9L15.5 10.525C15.6 10.35 15.625 10.15 15.575 9.97505C15.525 9.80005 15.35 9.62505 15.175 9.52505ZM13.275 12L12.075 11.325C11.725 11.125 11.325 11.175 11.025 11.425C10.9 11.525 10.8 11.6 10.7 11.7C10.45 11.925 10.275 12.075 10.025 12.175C9.62499 12.375 9.34999 12.8 9.34999 13.25V14.35C9.34999 14.4 9.32499 14.425 9.27499 14.425H6.72499C6.67499 14.425 6.64999 14.4 6.64999 14.35V13.275C6.64999 12.825 6.37499 12.4 5.97499 12.2C5.72499 12.075 5.52499 11.925 5.27499 11.7C5.17499 11.625 5.07499 11.525 4.94999 11.45C4.77499 11.325 4.57499 11.25 4.34999 11.25C4.19999 11.25 4.02499 11.3 3.87499 11.375L2.67499 12.05L1.67499 10.35L2.84999 9.70005C3.19999 9.50005 3.39999 9.12505 3.34999 8.70005C3.32499 8.45005 3.29999 8.20005 3.29999 7.95005C3.29999 7.67505 3.32499 7.42505 3.34999 7.22505C3.42499 6.80005 3.22499 6.37505 2.84999 6.17505L1.74999 5.55005L2.72499 3.87505L3.92499 4.55005C4.27499 4.75005 4.67499 4.70005 4.97499 4.45005C5.07499 4.37505 5.17499 4.27505 5.27499 4.20005C5.52499 3.97505 5.72499 3.82505 5.97499 3.70005C6.39999 3.50005 6.64999 3.07505 6.64999 2.62505V1.65005C6.64999 1.60005 6.67499 1.57505 6.72499 1.57505H9.27499C9.32499 1.57505 9.34999 1.60005 9.34999 1.65005V2.60005C9.34999 3.05005 9.62499 3.47505 10.025 3.67505C10.275 3.80005 10.45 3.95005 10.7 4.15005C10.8 4.25005 10.9 4.32505 11.025 4.42505C11.325 4.67505 11.75 4.70005 12.075 4.50005L13.275 3.82505L14.275 5.52505L13.125 6.17505C12.775 6.37505 12.575 6.80005 12.65 7.22505C12.675 7.45005 12.7 7.70005 12.7 7.95005C12.7 8.20005 12.675 8.45005 12.625 8.70005C12.55 9.12505 12.75 9.52505 13.125 9.72505L14.25 10.35L13.275 12Z"
            fill="#7D8189" />
    </g>
    <defs>
        <clipPath id="clip0_118_162">
            <rect width="16" height="16" fill="white" />
        </clipPath>
    </defs>
</svg>
