<svg width="16" height="16" viewBox="0 0 16 16" fill="none" xmlns="http://www.w3.org/2000/svg">
<path d="M12.1749 2.19999H10.2999V2.04999C10.2999 1.14999 9.57494 0.424988 8.67494 0.424988H7.29994C6.39994 0.424988 5.67494 1.14999 5.67494 2.04999V2.19999H3.79994C3.04994 2.19999 2.42494 2.79999 2.42494 3.57499V4.19999C2.42494 4.74999 2.74994 5.19999 3.19994 5.42499V11.95C3.19994 13.95 4.82494 15.55 6.79994 15.55H9.12494C11.1249 15.55 12.7249 13.925 12.7249 11.95V5.42499C13.1749 5.19999 13.4999 4.74999 13.4999 4.19999V3.57499C13.5499 2.82499 12.9249 2.19999 12.1749 2.19999ZM6.82494 2.04999C6.82494 1.77499 7.04994 1.54999 7.32494 1.54999H8.69994C8.97494 1.54999 9.19994 1.77499 9.19994 2.04999V2.19999H6.84994V2.04999H6.82494ZM3.57494 3.57499C3.57494 3.44999 3.67494 3.32499 3.82494 3.32499H12.1749C12.2999 3.32499 12.4249 3.42499 12.4249 3.57499V4.19999C12.4249 4.32499 12.3249 4.44999 12.1749 4.44999H3.82494C3.69994 4.44999 3.57494 4.34999 3.57494 4.19999V3.57499ZM9.17494 14.45H6.84994C5.47494 14.45 4.37494 13.325 4.37494 11.975V5.57499H11.6749V11.975C11.6499 13.325 10.5249 14.45 9.17494 14.45Z" fill="#F87171"/>
<path d="M7.99994 7.84998C7.69994 7.84998 7.42494 8.09998 7.42494 8.42498V11.6C7.42494 11.9 7.67494 12.175 7.99994 12.175C8.29994 12.175 8.57494 11.925 8.57494 11.6V8.42498C8.57494 8.09998 8.29994 7.84998 7.99994 7.84998Z" fill="#F87171"/>
<path d="M10.0249 8.32501C9.72494 8.32501 9.44994 8.57501 9.44994 8.90001V11.125C9.44994 11.425 9.69994 11.7 10.0249 11.7C10.3499 11.7 10.5999 11.45 10.5999 11.125V8.90001C10.5999 8.57501 10.3499 8.32501 10.0249 8.32501Z" fill="#F87171"/>
<path d="M5.97495 8.32501C5.67495 8.32501 5.39995 8.57501 5.39995 8.90001V11.125C5.39995 11.425 5.64995 11.7 5.97495 11.7C6.29995 11.7 6.54995 11.45 6.54995 11.125V8.90001C6.52495 8.57501 6.27495 8.32501 5.97495 8.32501Z" fill="#F87171"/>
</svg>
