<svg width="16" height="16" viewBox="0 0 16 16" fill="none" xmlns="http://www.w3.org/2000/svg">
    <path
        d="M11.2959 9.4139L12.7106 7.9999C13.3344 7.37409 13.6847 6.52651 13.6847 5.6429C13.6847 4.75929 13.3344 3.91171 12.7106 3.2859C12.0849 2.66177 11.2373 2.31126 10.3536 2.31126C9.46986 2.31126 8.62222 2.66177 7.99658 3.2859L7.52525 3.75723L8.46792 4.6999L8.93925 4.22857C9.31494 3.85456 9.82347 3.64458 10.3536 3.64458C10.8837 3.64458 11.3922 3.85456 11.7679 4.22857C12.1422 4.60408 12.3524 5.11268 12.3524 5.6429C12.3524 6.17312 12.1422 6.68172 11.7679 7.05723L10.3533 8.47123C10.1913 8.63216 10.0004 8.76108 9.79058 8.85123L8.93925 7.9999L9.88192 7.05723L9.41058 6.5859C9.1019 6.27531 8.73465 6.02906 8.33012 5.86141C7.92559 5.69376 7.49181 5.60805 7.05392 5.60923C6.89725 5.60923 6.74458 5.63056 6.59325 5.65323L2.46792 1.52856L1.52525 2.47123L13.5253 14.4712L14.4679 13.5286L10.7773 9.8379C10.9619 9.71523 11.1359 9.5739 11.2959 9.4139ZM7.05392 11.7712C6.67823 12.1452 6.1697 12.3552 5.63958 12.3552C5.10947 12.3552 4.60094 12.1452 4.22525 11.7712C3.85092 11.3957 3.64072 10.8871 3.64072 10.3569C3.64072 9.82668 3.85092 9.31808 4.22525 8.94257L5.20925 7.95923L4.26658 7.01657L3.28258 7.9999C2.65878 8.62571 2.3085 9.47329 2.3085 10.3569C2.3085 11.2405 2.65878 12.0881 3.28258 12.7139C3.59183 13.0236 3.95923 13.2691 4.36366 13.4364C4.76809 13.6037 5.20159 13.6894 5.63925 13.6886C6.07702 13.6895 6.51066 13.6038 6.91522 13.4366C7.31978 13.2693 7.68728 13.0237 7.99658 12.7139L8.46792 12.2426L7.52525 11.2999L7.05392 11.7712Z"
        fill="#F87171" />
</svg>
