<svg viewBox="0 0 16 16" fill="none" xmlns="http://www.w3.org/2000/svg">
    <path
        d="M12.175 2.19999H10.3V2.04999C10.3 1.14999 9.57499 0.424988 8.67499 0.424988H7.29999C6.39999 0.424988 5.67499 1.14999 5.67499 2.04999V2.19999H3.79999C3.04999 2.19999 2.42499 2.79999 2.42499 3.57499V4.19999C2.42499 4.74999 2.74999 5.19999 3.19999 5.42499V11.95C3.19999 13.95 4.82499 15.55 6.79999 15.55H9.12499C11.125 15.55 12.725 13.925 12.725 11.95V5.42499C13.175 5.19999 13.5 4.74999 13.5 4.19999V3.57499C13.55 2.82499 12.925 2.19999 12.175 2.19999ZM6.82499 2.04999C6.82499 1.77499 7.04999 1.54999 7.32499 1.54999H8.69999C8.97499 1.54999 9.19999 1.77499 9.19999 2.04999V2.19999H6.84999V2.04999H6.82499ZM3.57499 3.57499C3.57499 3.44999 3.67499 3.32499 3.82499 3.32499H12.175C12.3 3.32499 12.425 3.42499 12.425 3.57499V4.19999C12.425 4.32499 12.325 4.44999 12.175 4.44999H3.82499C3.69999 4.44999 3.57499 4.34999 3.57499 4.19999V3.57499ZM9.17499 14.45H6.84999C5.47499 14.45 4.37499 13.325 4.37499 11.975V5.57499H11.675V11.975C11.65 13.325 10.525 14.45 9.17499 14.45Z"
        fill="#F87171" />
    <path
        d="M7.99999 7.84998C7.69999 7.84998 7.42499 8.09998 7.42499 8.42498V11.6C7.42499 11.9 7.67499 12.175 7.99999 12.175C8.29999 12.175 8.57499 11.925 8.57499 11.6V8.42498C8.57499 8.09998 8.29999 7.84998 7.99999 7.84998Z"
        fill="#F87171" />
    <path
        d="M10.025 8.32501C9.72498 8.32501 9.44998 8.57501 9.44998 8.90001V11.125C9.44998 11.425 9.69998 11.7 10.025 11.7C10.35 11.7 10.6 11.45 10.6 11.125V8.90001C10.6 8.57501 10.35 8.32501 10.025 8.32501Z"
        fill="#F87171" />
    <path
        d="M5.97499 8.32501C5.67499 8.32501 5.39999 8.57501 5.39999 8.90001V11.125C5.39999 11.425 5.64999 11.7 5.97499 11.7C6.29999 11.7 6.54999 11.45 6.54999 11.125V8.90001C6.52499 8.57501 6.27499 8.32501 5.97499 8.32501Z"
        fill="#F87171" />
</svg>