<svg viewBox="0 0 18 18" fill="none" xmlns="http://www.w3.org/2000/svg">
    <path
        d="M16.7625 8.35307C16.65 8.15619 16.4812 8.01557 16.2844 7.90307L3.31875 0.646816C3.09375 0.534316 2.84062 0.478066 2.5875 0.506191C2.33437 0.534316 2.10937 0.618691 1.9125 0.787441C1.71562 0.956191 1.575 1.18119 1.51875 1.40619C1.43437 1.65932 1.4625 1.91244 1.54687 2.16557L3.96562 8.99994L1.54687 15.8343C1.4625 16.0874 1.4625 16.3406 1.51875 16.5656C1.575 16.8187 1.71562 17.0156 1.9125 17.1843C2.10937 17.3531 2.33437 17.4374 2.5875 17.4656C2.61562 17.4656 2.67187 17.4656 2.7 17.4656C2.89687 17.4656 3.12187 17.4093 3.31875 17.2968L16.2844 10.0406C16.4812 9.92807 16.65 9.78744 16.7625 9.59056C16.875 9.39369 16.9312 9.16869 16.9312 8.97182C16.9312 8.77494 16.875 8.54994 16.7625 8.35307ZM2.75625 1.77182L14.5125 8.35307H5.09062L2.75625 1.77182ZM2.75625 16.2281L5.11875 9.64682H14.5406L2.75625 16.2281Z"
        fill="#7D8189" />
</svg>
