<svg viewBox="0 0 20 20" fill="none" xmlns="http://www.w3.org/2000/svg">
    <path
        d="M17.1875 3.3125H15.875V2.625C15.875 2.25 15.5625 1.90625 15.1562 1.90625C14.75 1.90625 14.4375 2.21875 14.4375 2.625V3.3125H5.53125V2.625C5.53125 2.25 5.21875 1.90625 4.8125 1.90625C4.40625 1.90625 4.09375 2.21875 4.09375 2.625V3.3125H2.8125C1.5625 3.3125 0.53125 4.34375 0.53125 5.59375V15.8438C0.53125 17.0938 1.5625 18.125 2.8125 18.125H17.1875C18.4375 18.125 19.4687 17.0938 19.4687 15.8438V5.5625C19.4687 4.3125 18.4375 3.3125 17.1875 3.3125ZM2.8125 4.71875H4.125V5C4.125 5.375 4.4375 5.71875 4.84375 5.71875C5.25 5.71875 5.5625 5.40625 5.5625 5V4.71875H14.5V5C14.5 5.375 14.8125 5.71875 15.2187 5.71875C15.625 5.71875 15.9375 5.40625 15.9375 5V4.71875H17.1875C17.6562 4.71875 18.0625 5.09375 18.0625 5.59375V7.34375H1.96875V5.59375C1.96875 5.09375 2.34375 4.71875 2.8125 4.71875ZM17.1875 16.6875H2.8125C2.34375 16.6875 1.9375 16.3125 1.9375 15.8125V8.75H18.0312V15.8438C18.0625 16.3125 17.6562 16.6875 17.1875 16.6875Z"
        fill="white" />
    <path
        d="M12.125 10.4687L9.40625 13.1875L8.53125 12.3125C8.25 12.0313 7.8125 12.0313 7.53125 12.3125C7.25 12.5938 7.25 13.0312 7.53125 13.3125L8.90625 14.6875C9.03125 14.8125 9.21875 14.9063 9.40625 14.9063C9.59375 14.9063 9.78125 14.8438 9.90625 14.6875L13.125 11.4688C13.4062 11.1875 13.4062 10.75 13.125 10.4687C12.8437 10.1875 12.4062 10.1875 12.125 10.4687Z"
        fill="white" />
</svg>
