<svg width="20" height="20" viewBox="0 0 20 20" fill="none" xmlns="http://www.w3.org/2000/svg">
    <g clip-path="url(#clip0_273_1512)">
        <path
            d="M19.8438 5C19.75 4.9375 19.625 4.90625 19.5312 4.96875L13.1562 7.25L8.6875 5.625C8.9375 5 9.0625 4.4375 9.0625 3.96875C9.0625 3.125 8.75 2.375 8.15625 1.78125C7.5625 1.1875 6.78125 0.875 5.96875 0.875C4.25 0.875 2.875 2.25 2.875 3.96875C2.875 4.5625 3.09375 5.28125 3.46875 6.15625L0.21875 7.25C0.09375 7.3125 0 7.4375 0 7.5625V18.8125C0 18.9375 0.0625 19.0312 0.15625 19.0938C0.21875 19.125 0.28125 19.1562 0.34375 19.1562C0.375 19.1562 0.4375 19.1562 0.46875 19.125L6.84375 16.875L13.0312 19.1562C13.0938 19.1875 13.1875 19.1875 13.25 19.1562L19.75 16.8438C19.875 16.7813 19.9688 16.6563 19.9688 16.5313V5.28125C20 5.15625 19.9375 5.0625 19.8438 5ZM5.96875 1.5C6.625 1.5 7.21875 1.75 7.65625 2.21875C8.125 2.65625 8.375 3.28125 8.375 3.90625C8.375 4.34375 8.21875 4.9375 7.90625 5.625C7.34375 6.875 6.40625 8.1875 5.96875 8.78125C5.90625 8.71875 5.875 8.65625 5.8125 8.5625C5.40625 8 4.75 7.0625 4.28125 6.09375C3.8125 5.1875 3.59375 4.4375 3.59375 3.875C3.5625 2.59375 4.65625 1.5 5.96875 1.5ZM19.3125 16.2812L13.1562 18.4688L6.96875 16.1875C6.9375 16.1875 6.875 16.1562 6.84375 16.1562C6.8125 16.1562 6.75 16.1562 6.71875 16.1875L0.6875 18.3438V7.8125L3.8125 6.71875C3.8125 6.71875 3.8125 6.71875 3.8125 6.75C3.84375 6.78125 3.84375 6.8125 3.875 6.84375C3.90625 6.90625 3.9375 6.96875 3.96875 7.03125C4 7.0625 4 7.09375 4.03125 7.125C4.0625 7.1875 4.09375 7.25 4.125 7.3125C4.15625 7.34375 4.15625 7.375 4.1875 7.40625C4.21875 7.46875 4.25 7.53125 4.28125 7.5625C4.3125 7.59375 4.3125 7.625 4.34375 7.65625C4.375 7.71875 4.40625 7.75 4.4375 7.8125C4.46875 7.84375 4.46875 7.875 4.5 7.90625C4.53125 7.96875 4.5625 8 4.59375 8.0625C4.625 8.09375 4.625 8.125 4.65625 8.15625C4.6875 8.21875 4.71875 8.25 4.75 8.3125C4.78125 8.34375 4.78125 8.375 4.8125 8.40625C4.84375 8.46875 4.875 8.5 4.90625 8.5625C4.9375 8.59375 4.9375 8.625 4.96875 8.625C5 8.6875 5.03125 8.71875 5.0625 8.75C5.0625 8.78125 5.09375 8.78125 5.09375 8.8125C5.125 8.875 5.15625 8.90625 5.1875 8.9375L5.21875 8.96875C5.25 9 5.28125 9.0625 5.3125 9.09375L5.34375 9.125C5.375 9.15625 5.40625 9.21875 5.4375 9.25C5.46875 9.28125 5.5 9.3125 5.53125 9.34375C5.59375 9.4375 5.65625 9.5 5.65625 9.53125C5.71875 9.625 5.8125 9.65625 5.9375 9.65625C6.03125 9.65625 6.125 9.59375 6.21875 9.53125C6.21875 9.53125 6.25 9.5 6.3125 9.4375L6.34375 9.40625C6.375 9.375 6.375 9.375 6.40625 9.34375L6.4375 9.3125C6.46875 9.28125 6.46875 9.25 6.5 9.21875C6.5 9.1875 6.53125 9.1875 6.53125 9.15625C6.5625 9.125 6.59375 9.09375 6.59375 9.0625C6.625 9.03125 6.625 9 6.65625 8.96875C6.6875 8.9375 6.71875 8.90625 6.75 8.84375C6.78125 8.8125 6.78125 8.78125 6.8125 8.75C6.84375 8.71875 6.875 8.6875 6.90625 8.625C6.9375 8.59375 6.96875 8.5625 6.96875 8.53125C7 8.5 7.03125 8.4375 7.0625 8.40625C7.09375 8.375 7.125 8.3125 7.15625 8.28125C7.1875 8.25 7.21875 8.1875 7.25 8.15625C7.28125 8.125 7.3125 8.0625 7.34375 8.03125C7.375 7.96875 7.40625 7.9375 7.4375 7.875C7.46875 7.84375 7.5 7.78125 7.53125 7.75C7.5625 7.6875 7.59375 7.65625 7.625 7.59375C7.65625 7.53125 7.6875 7.5 7.71875 7.4375C7.75 7.375 7.78125 7.34375 7.8125 7.28125C7.84375 7.21875 7.875 7.1875 7.90625 7.125C7.9375 7.0625 7.96875 7.03125 8 6.96875C8.03125 6.90625 8.0625 6.875 8.09375 6.8125C8.125 6.75 8.15625 6.71875 8.1875 6.65625C8.21875 6.59375 8.25 6.5625 8.28125 6.5C8.3125 6.4375 8.34375 6.375 8.375 6.34375C8.40625 6.28125 8.4375 6.25 8.4375 6.1875C8.4375 6.1875 8.4375 6.1875 8.4375 6.15625L13.0625 7.84375C13.125 7.875 13.2188 7.875 13.2812 7.84375L19.3125 5.6875V16.2812Z"
            fill="white" />
        <path
            d="M16.4062 13.2498C16.4687 13.2811 16.5625 13.2811 16.625 13.2811C16.8125 13.2811 17 13.2186 17.1562 13.1248C17.375 12.9686 17.5312 12.7498 17.5937 12.4998C17.6562 12.2498 17.5937 11.9686 17.4687 11.7498C17.3125 11.5311 17.0937 11.3748 16.8437 11.3123C16.3125 11.1873 15.75 11.5311 15.625 12.0623C15.5625 12.3123 15.625 12.5936 15.75 12.8123C15.9375 13.0311 16.1562 13.1873 16.4062 13.2498ZM16.3125 12.1873C16.3437 11.9998 16.5312 11.9061 16.6875 11.9373C16.7812 11.9686 16.8437 11.9998 16.875 12.0936C16.9062 12.1561 16.9375 12.2498 16.9062 12.3436C16.875 12.4373 16.8437 12.4998 16.75 12.5311C16.6875 12.5623 16.5937 12.5936 16.5 12.5623C16.4062 12.5311 16.3437 12.4998 16.3125 12.4061C16.3125 12.3436 16.3125 12.2811 16.3125 12.1873Z"
            fill="white" />
        <path
            d="M3.43753 12.2188L3.21878 12.3438L3.09378 12.1251C3.00003 11.9688 2.78128 11.9063 2.62503 12.0313C2.46878 12.1251 2.40628 12.3438 2.53128 12.5001L2.65628 12.7188L2.43753 12.8438C2.28128 12.9376 2.21878 13.1563 2.34378 13.3126C2.37503 13.4376 2.50003 13.4688 2.59378 13.4688C2.65628 13.4688 2.71878 13.4376 2.78128 13.4063L3.00003 13.2813L3.12503 13.5001C3.18753 13.5938 3.31253 13.6563 3.40628 13.6563C3.46878 13.6563 3.53128 13.6251 3.59378 13.5938C3.75003 13.5001 3.81253 13.2813 3.68753 13.1251L3.56253 12.9063L3.78128 12.7813C3.93753 12.6876 4.00003 12.4688 3.87503 12.3126C3.81253 12.1563 3.59378 12.1251 3.43753 12.2188Z"
            fill="white" />
        <path
            d="M6.65627 13.1562C6.25002 13.1562 5.71878 13.0937 5.37503 12.9999C5.18753 12.9687 5.00003 13.0937 4.96878 13.2812C4.93753 13.4687 5.06252 13.6562 5.25002 13.6874C5.59377 13.7499 6.15627 13.8437 6.65627 13.8437C6.84377 13.8437 7.00003 13.6874 7.00003 13.4999C7.00003 13.3124 6.84377 13.1562 6.65627 13.1562Z"
            fill="white" />
        <path
            d="M9.21875 11.9685C9 12.281 8.75 12.531 8.4375 12.7185C8.34375 12.781 8.21875 12.8435 8.09375 12.906C7.90625 12.9685 7.84375 13.1873 7.90625 13.3748C7.96875 13.4998 8.09375 13.5935 8.21875 13.5935C8.25 13.5935 8.3125 13.5935 8.34375 13.5623C8.5 13.4998 8.625 13.4373 8.75 13.3435C9.125 13.0935 9.4375 12.8123 9.71875 12.4373C9.84375 12.281 9.8125 12.0623 9.65625 11.9685C9.5625 11.781 9.34375 11.8123 9.21875 11.9685Z"
            fill="white" />
        <path
            d="M11.7187 9.71875C11.375 9.71875 11.1875 9.8125 11 9.875C10.5625 10.0625 10.1875 10.4688 10.0937 10.5938C9.96873 10.75 9.99999 10.9687 10.125 11.0937C10.1875 11.1562 10.2812 11.1875 10.3437 11.1875C10.4375 11.1875 10.5312 11.1563 10.5937 11.0625C10.75 10.875 11 10.6563 11.25 10.5313C11.4375 10.4688 11.5 10.4375 11.7187 10.4062C11.9062 10.4062 12.0625 10.25 12.0625 10.0625C12.0625 9.875 11.9062 9.71875 11.7187 9.71875Z"
            fill="white" />
        <path
            d="M13 10.2498C12.9375 10.4373 13 10.6248 13.1875 10.7186C13.5313 10.8748 14.0312 11.1248 14.4062 11.4061C14.4688 11.4373 14.5313 11.4686 14.5938 11.4686C14.7188 11.4686 14.8125 11.4061 14.875 11.3123C14.9688 11.1561 14.9375 10.9373 14.7813 10.8436C14.3438 10.5623 13.8438 10.2811 13.4375 10.1248C13.2813 9.99982 13.0937 10.0936 13 10.2498Z"
            fill="white" />
        <path
            d="M5.96875 4.75C6.5625 4.75 7.03125 4.28125 7.03125 3.6875C7.03125 3.09375 6.5625 2.625 5.96875 2.625C5.375 2.625 4.90625 3.09375 4.90625 3.6875C4.90625 4.28125 5.40625 4.75 5.96875 4.75ZM5.96875 3.3125C6.15625 3.3125 6.34375 3.46875 6.34375 3.6875C6.34375 3.875 6.1875 4.0625 5.96875 4.0625C5.78125 4.0625 5.59375 3.90625 5.59375 3.6875C5.625 3.5 5.78125 3.3125 5.96875 3.3125Z"
            fill="white" />
    </g>
    <defs>
        <clipPath id="clip0_273_1512">
            <rect width="20" height="20" fill="white" />
        </clipPath>
    </defs>
</svg>