<svg width="24" height="24" viewBox="0 0 24 24" fill="none" xmlns="http://www.w3.org/2000/svg">
<path d="M8.25 11.625C7.21165 11.625 6.19662 11.3171 5.33326 10.7402C4.4699 10.1633 3.79699 9.3434 3.39963 8.38409C3.00227 7.42478 2.89831 6.36918 3.10088 5.35078C3.30345 4.33238 3.80347 3.39692 4.53769 2.66269C5.27192 1.92847 6.20738 1.42845 7.22578 1.22588C8.24418 1.02331 9.29978 1.12727 10.2591 1.52463C11.2184 1.92199 12.0383 2.5949 12.6152 3.45826C13.1921 4.32162 13.5 5.33665 13.5 6.375C13.5 7.76739 12.9469 9.10275 11.9623 10.0873C10.9777 11.0719 9.64239 11.625 8.25 11.625ZM8.25 1.875C7.35999 1.875 6.48996 2.13892 5.74994 2.63339C5.00992 3.12786 4.43314 3.83066 4.09254 4.65293C3.75195 5.47519 3.66284 6.37999 3.83647 7.25291C4.0101 8.12582 4.43869 8.92765 5.06802 9.55698C5.69736 10.1863 6.49918 10.6149 7.3721 10.7885C8.24501 10.9622 9.14981 10.8731 9.97208 10.5325C10.7943 10.1919 11.4971 9.61509 11.9916 8.87507C12.4861 8.13505 12.75 7.26502 12.75 6.375C12.75 5.18153 12.2759 4.03694 11.432 3.19302C10.5881 2.34911 9.44348 1.875 8.25 1.875Z" fill="#7F8080"/>
<path d="M15.75 11.625V10.875C16.9435 10.875 18.0881 10.4009 18.932 9.55698C19.7759 8.71307 20.25 7.56847 20.25 6.375C20.25 5.18153 19.7759 4.03693 18.932 3.19302C18.0881 2.34911 16.9435 1.875 15.75 1.875V1.125C17.1424 1.125 18.4777 1.67812 19.4623 2.66269C20.4469 3.64726 21 4.98261 21 6.375C21 7.76739 20.4469 9.10274 19.4623 10.0873C18.4777 11.0719 17.1424 11.625 15.75 11.625Z" fill="#7F8080"/>
<path d="M16.125 22.875H0.375C0.275544 22.875 0.180161 22.8355 0.109835 22.7652C0.0395088 22.6948 0 22.5995 0 22.5V19.125C0 16.937 0.869194 14.8385 2.41637 13.2914C3.96354 11.7442 6.06196 10.875 8.25 10.875C10.438 10.875 12.5365 11.7442 14.0836 13.2914C15.6308 14.8385 16.5 16.937 16.5 19.125V22.5C16.5 22.5995 16.4605 22.6948 16.3902 22.7652C16.3198 22.8355 16.2245 22.875 16.125 22.875ZM0.75 22.125H15.75V19.125C15.75 17.1359 14.9598 15.2282 13.5533 13.8217C12.1468 12.4152 10.2391 11.625 8.25 11.625C6.26088 11.625 4.35322 12.4152 2.9467 13.8217C1.54018 15.2282 0.75 17.1359 0.75 19.125V22.125Z" fill="#7F8080"/>
<path d="M23.625 22.875H17.625V22.125H23.25V19.125C23.25 17.1359 22.4598 15.2282 21.0533 13.8217C19.6468 12.4152 17.7391 11.625 15.75 11.625V10.875C17.938 10.875 20.0365 11.7442 21.5836 13.2914C23.1308 14.8385 24 16.937 24 19.125V22.5C24 22.5995 23.9605 22.6948 23.8902 22.7652C23.8198 22.8355 23.7245 22.875 23.625 22.875Z" fill="#7F8080"/>
</svg>
