<svg width="9" height="8" viewBox="0 0 9 8" fill="none" xmlns="http://www.w3.org/2000/svg">
    <path
        d="M5.25622 4.14565L8.80587 1.13285C8.87406 1.06221 8.90891 0.972542 8.90364 0.881275C8.89837 0.790008 8.85335 0.703672 8.77734 0.639059C8.70132 0.574446 8.59976 0.536176 8.49239 0.531693C8.38502 0.527211 8.27953 0.556836 8.19644 0.614807L4.65214 3.63216L1.10783 0.614807C1.02474 0.556836 0.91925 0.527211 0.811883 0.531693C0.704516 0.536176 0.602949 0.574446 0.526937 0.639059C0.450926 0.703672 0.405905 0.790008 0.400632 0.881275C0.395358 0.972542 0.43021 1.06221 0.498407 1.13285L4.04805 4.14565L0.498407 7.15846C0.418099 7.22739 0.373047 7.32047 0.373047 7.41748C0.373047 7.51449 0.418099 7.60758 0.498407 7.6765C0.580152 7.74369 0.689412 7.78125 0.803121 7.78125C0.91683 7.78125 1.02609 7.74369 1.10783 7.6765L4.65214 4.65915L8.19644 7.6765C8.27818 7.74369 8.38744 7.78125 8.50115 7.78125C8.61486 7.78125 8.72412 7.74369 8.80587 7.6765C8.88617 7.60758 8.93122 7.51449 8.93122 7.41748C8.93122 7.32047 8.88617 7.22739 8.80587 7.15846L5.25622 4.14565Z"
        fill="#565656" />
</svg>