<svg viewBox="0 0 40 40" fill="none" xmlns="http://www.w3.org/2000/svg">
<circle cx="20" cy="20" r="20" fill="#C9C9C9"/>
<path d="M19.9999 20C23.6818 20 26.6666 17.0152 26.6666 13.3333C26.6666 9.65139 23.6818 6.66663 19.9999 6.66663C16.318 6.66663 13.3333 9.65139 13.3333 13.3333C13.3333 17.0152 16.318 20 19.9999 20Z" fill="#272643"/>
<path d="M33.3334 31.6666V33.3333C33.3334 33.7753 33.1578 34.1992 32.8453 34.5118C32.5327 34.8244 32.1088 35 31.6667 35H8.33341C7.89139 35 7.46746 34.8244 7.1549 34.5118C6.84234 34.1992 6.66675 33.7753 6.66675 33.3333V31.6666C6.66675 29.0145 7.72032 26.4709 9.59568 24.5956C11.471 22.7202 14.0146 21.6666 16.6667 21.6666H23.3334C25.9856 21.6666 28.5291 22.7202 30.4045 24.5956C32.2798 26.4709 33.3334 29.0145 33.3334 31.6666Z" fill="#272643"/>
</svg>
